<?xml version="1.0" encoding="utf-8"?>
<!-- Generator: Adobe Illustrator 19.2.1, SVG Export Plug-In . SVG Version: 6.00 Build 0)  -->
<svg version="1.1" id="Слой_1" xmlns="http://www.w3.org/2000/svg" xmlns:xlink="http://www.w3.org/1999/xlink" x="0px" y="0px"
	 viewBox="0 0 71.8 71.8" style="enable-background:new 0 0 71.8 71.8;" xml:space="preserve">
<style type="text/css">
	.st0{fill:#363639;}
</style>
<title>btc</title>
<g id="Layer_2">
	<g id="Слой_1_1_">
		<path class="st0" d="M33,33h1c0.6,0,1,0,1.4,0h1.5c0.5,0,1.1-0.1,1.6-0.2c0.4-0.1,0.9-0.2,1.5-0.3c0.5-0.1,1-0.3,1.4-0.5
			c0.4-0.2,0.7-0.5,1.1-0.8c0.4-0.3,0.6-0.7,0.8-1.2c0.2-0.5,0.3-1,0.3-1.5c0-0.6-0.1-1.2-0.4-1.7c-0.2-0.5-0.5-0.9-0.9-1.2
			c-0.4-0.4-0.9-0.6-1.4-0.8c-0.5-0.2-1.1-0.4-1.6-0.5c-0.6-0.1-1.2-0.2-1.8-0.2c-0.7,0-1.3,0-1.7,0h-1.6H33V33z"/>
		<path class="st0" d="M44.1,39.3c-0.5-0.4-1.1-0.7-1.7-0.9c-0.6-0.2-1.3-0.4-1.9-0.5c-0.7-0.1-1.4-0.2-2.2-0.3
			c-0.9-0.1-1.5-0.1-2-0.1h-1.9H33v9.9h1.1h1.4c0.4,0,0.9,0,1.5,0s1.2-0.1,1.7-0.1s1-0.1,1.7-0.3c0.5-0.1,1.1-0.2,1.6-0.4
			c0.5-0.2,0.9-0.4,1.4-0.6c0.4-0.2,0.8-0.5,1.2-0.9c0.3-0.3,0.5-0.7,0.7-1.1c0.2-0.5,0.3-1,0.3-1.5c0-0.7-0.1-1.3-0.4-1.9
			C44.9,40.1,44.5,39.6,44.1,39.3z"/>
		<path class="st0" d="M71.8,35.9C71.8,16.1,55.7,0,35.9,0S0,16,0,35.9S16,71.8,35.9,71.8c6.8,0,13.6-2,19.3-5.6l13.7,5.6l-4.5-14
			C69.2,51.5,71.8,43.8,71.8,35.9z M54.5,43.4c-0.1,1.3-0.4,2.5-0.9,3.6c-0.4,1-1.1,1.9-1.9,2.6c-0.8,0.7-1.8,1.3-2.8,1.7
			c-1.1,0.5-2.3,0.8-3.6,1c-1.4,0.2-2.8,0.4-4.3,0.5v7.5h-4.5v-7.4c-1.6,0-2.8,0-3.6,0v7.4h-4.5v-7.5h-1.6h-7.5l0.9-5.4h3.3
			c0.9,0.1,1.6-0.6,1.7-1.4c0,0,0-0.1,0-0.1V34.2h0.5c-0.2,0-0.3,0-0.5,0v-8.4c-0.2-1.3-1.3-2.2-2.6-2h-3.3V19h6.2
			c1.2,0,2.2,0,2.8,0v-7.4h4.5v7.2c1.6,0,2.8-0.1,3.6-0.1v-7.2H41v7.4c1.4,0.1,2.8,0.3,4.1,0.7c1.2,0.3,2.3,0.7,3.3,1.3
			c1,0.5,1.8,1.3,2.4,2.3c0.6,1,1,2.2,1.1,3.4c0.4,3.6-0.9,6.1-3.8,7.6c2,0.4,3.8,1.4,5.1,3C54.3,38.6,54.8,40.7,54.5,43.4
			L54.5,43.4z"/>
	</g>
</g>
</svg>
