<?xml version="1.0" encoding="utf-8"?>
<!-- Generator: Adobe Illustrator 19.2.1, SVG Export Plug-In . SVG Version: 6.00 Build 0)  -->
<svg version="1.1" id="Слой_1" xmlns="http://www.w3.org/2000/svg" xmlns:xlink="http://www.w3.org/1999/xlink" x="0px" y="0px"
	 viewBox="0 0 71.8 71.8" style="enable-background:new 0 0 71.8 71.8;" xml:space="preserve">
<style type="text/css">
	.st0{fill:#363639;}
</style>
<title>fb</title>
<g id="Layer_2">
	<g id="Слой_1_1_">
		<path class="st0" d="M35.9,0C16.1,0,0,16.1,0,35.9s16.1,35.9,35.9,35.9s35.9-16.1,35.9-35.9S55.7,0,35.9,0C35.9,0,35.9,0,35.9,0z
			 M45.8,22h-5.2c-1.1,0-2,0.8-2.1,1.9c0,0.1,0,0.2,0,0.3v4.9h7.3l-0.8,8.2h-6.4v23.4h-9.7V37.3h-4.6v-8.3h4.6v-5.3
			c0-3.8,1.8-9.8,9.8-9.8h7.2V22z"/>
	</g>
</g>
</svg>
