<?xml version="1.0" encoding="utf-8"?>
<!-- Generator: Adobe Illustrator 19.2.1, SVG Export Plug-In . SVG Version: 6.00 Build 0)  -->
<svg version="1.1" id="Слой_1" xmlns="http://www.w3.org/2000/svg" xmlns:xlink="http://www.w3.org/1999/xlink" x="0px" y="0px"
	 viewBox="0 0 71.8 71.8" style="enable-background:new 0 0 71.8 71.8;" xml:space="preserve">
<style type="text/css">
	.st0{fill:#363639;}
</style>
<title>inst</title>
<g id="Layer_2">
	<g id="Слой_1_1_">
		<path class="st0" d="M46.6,19.1H25.2c-3.4,0-6.2,2.8-6.2,6.2v21.4c0,3.4,2.8,6.2,6.2,6.2h0h21.4c3.4,0,6.2-2.8,6.2-6.2V25.3
			C52.8,21.9,50,19.1,46.6,19.1C46.6,19.1,46.6,19.1,46.6,19.1z M35.9,47.1c-6.1,0-11.1-5-11.1-11.1s5-11.1,11.1-11.1S47,29.8,47,36
			c0,0,0,0,0,0C47,42.1,42,47.1,35.9,47.1L35.9,47.1z M47.4,27.2c-1.5,0-2.6-1.2-2.6-2.6c0-1.5,1.2-2.6,2.6-2.6
			c1.5,0,2.6,1.2,2.6,2.6c0,0,0,0,0,0C50,26,48.8,27.2,47.4,27.2L47.4,27.2L47.4,27.2z"/>
		<path class="st0" d="M35.9,29.6c-3.5,0-6.4,2.9-6.4,6.4c0,3.5,2.9,6.4,6.4,6.4c3.5,0,6.4-2.9,6.4-6.4
			C42.3,32.5,39.4,29.6,35.9,29.6z"/>
		<path class="st0" d="M35.9,0C16.1,0,0,16.1,0,35.9s16.1,35.9,35.9,35.9s35.9-16.1,35.9-35.9S55.7,0,35.9,0C35.9,0,35.9,0,35.9,0z
			 M57.5,46.7c0,6-4.9,10.9-10.9,10.9H25.2c-6,0-10.9-4.9-10.9-10.9V25.3c0-6,4.9-10.9,10.9-10.9h21.4c6,0,10.9,4.9,10.9,10.9V46.7z
			"/>
	</g>
</g>
</svg>
