<?xml version="1.0" encoding="utf-8"?>
<!-- Generator: Adobe Illustrator 19.2.1, SVG Export Plug-In . SVG Version: 6.00 Build 0)  -->
<svg version="1.1" id="Слой_1" xmlns="http://www.w3.org/2000/svg" xmlns:xlink="http://www.w3.org/1999/xlink" x="0px" y="0px"
	 viewBox="0 0 71.8 71.8" style="enable-background:new 0 0 71.8 71.8;" xml:space="preserve">
<style type="text/css">
	.st0{fill:#363639;}
</style>
<title>tg</title>
<g id="Layer_2">
	<g id="Слой_1_1_">
		<path class="st0" d="M47,23.4L23.8,37.8c-0.4,0.3-0.6,0.7-0.5,1.2l3.1,10c0,0.1,0.1,0.2,0.2,0.2c0.1,0,0.2-0.1,0.2-0.2l0.8-6.7
			c0-0.3,0.2-0.5,0.4-0.7l19.6-17.4c0.2-0.2,0.3-0.5,0.1-0.7S47.2,23.3,47,23.4z"/>
		<path class="st0" d="M35.9,0C16.1,0,0,16.1,0,35.9s16.1,35.9,35.9,35.9s35.9-16.1,35.9-35.9S55.7,0,35.9,0C35.9,0,35.9,0,35.9,0z
			 M55.8,19.1l-7.2,34.5c-0.3,1.2-1.5,2-2.7,1.8c-0.3-0.1-0.6-0.2-0.9-0.4l-10.9-8l-5.5,5.7c-0.7,0.7-1.9,0.7-2.6,0
			c-0.2-0.2-0.4-0.5-0.5-0.8l-4-12.7L10.8,36c-0.8-0.2-1.3-1.1-1-1.9c0.1-0.5,0.5-0.8,0.9-1l42.2-16.5c1.1-0.4,2.4,0.1,2.8,1.2
			C55.8,18.2,55.8,18.7,55.8,19.1z"/>
	</g>
</g>
</svg>
