<?xml version="1.0" encoding="utf-8"?>
<!-- Generator: Adobe Illustrator 19.2.1, SVG Export Plug-In . SVG Version: 6.00 Build 0)  -->
<svg version="1.1" id="Слой_1" xmlns="http://www.w3.org/2000/svg" xmlns:xlink="http://www.w3.org/1999/xlink" x="0px" y="0px"
	 viewBox="0 0 71.8 71.8" style="enable-background:new 0 0 71.8 71.8;" xml:space="preserve">
<style type="text/css">
	.st0{fill:#363639;}
</style>
<title>tw</title>
<g id="Layer_2">
	<g id="Слой_1_1_">
		<path class="st0" d="M35.9,0C16.1,0,0,16.1,0,35.9s16.1,35.9,35.9,35.9s35.9-16.1,35.9-35.9S55.7,0,35.9,0C35.9,0,35.9,0,35.9,0z
			 M56.5,28.5c0,0.4,0,0.8,0,1.2c0,12.3-9.4,26.5-26.5,26.5c-5.1,0-10-1.4-14.3-4.2c4.9,0.6,9.9-0.8,13.8-3.8
			c-4-0.1-7.5-2.7-8.7-6.5c1.4,0.3,2.8,0.2,4.2-0.2c-4.3-0.9-7.5-4.7-7.5-9.1c0,0,0-0.1,0-0.1c1.3,0.7,2.7,1.1,4.2,1.2
			c-4.1-2.7-5.4-8.2-2.9-12.4c4.7,5.8,11.7,9.4,19.2,9.7c-1.2-5,1.9-10,7-11.2c3.2-0.8,6.6,0.3,8.9,2.7c2.1-0.4,4.1-1.2,5.9-2.3
			c-0.7,2.2-2.1,4-4.1,5.1c1.8-0.2,3.7-0.7,5.3-1.5C59.9,25.6,58.3,27.2,56.5,28.5L56.5,28.5z"/>
	</g>
</g>
</svg>
