<svg xmlns="http://www.w3.org/2000/svg" viewBox="0 0 705.54 460.25"><defs><style>.cls-1{fill:#fc2237;}.cls-2{fill:#fa2238;}.cls-3{fill:#f82239;}.cls-4{fill:#f5223a;}.cls-5{fill:#f3223b;}.cls-6{fill:#f1223d;}.cls-7{fill:#ef223e;}.cls-8{fill:#ec223f;}.cls-9{fill:#ea2240;}.cls-10{fill:#e82341;}.cls-11{fill:#e62342;}.cls-12{fill:#e32343;}.cls-13{fill:#e12344;}.cls-14{fill:#df2345;}.cls-15{fill:#dd2347;}.cls-16{fill:#da2348;}.cls-17{fill:#d82349;}.cls-18{fill:#d6234a;}.cls-19{fill:#d4234b;}.cls-20{fill:#d1234c;}.cls-21{fill:#cf234d;}.cls-22{fill:#cd234e;}.cls-23{fill:#cb234f;}.cls-24{fill:#c82351;}.cls-25{fill:#c62352;}.cls-26{fill:#c42453;}.cls-27{fill:#c22454;}.cls-28{fill:#bf2455;}.cls-29{fill:#bd2456;}.cls-30{fill:#bb2457;}.cls-31{fill:#b92458;}.cls-32{fill:#b62459;}.cls-33{fill:#b4245b;}.cls-34{fill:#b2245c;}.cls-35{fill:#b0245d;}.cls-36{fill:#ad245e;}.cls-37{fill:#ab245f;}.cls-38{fill:#a92460;}.cls-39{fill:#a72461;}.cls-40{fill:#a42462;}.cls-41{fill:#a22463;}.cls-42{fill:#a02565;}.cls-43{fill:#9e2566;}.cls-44{fill:#9b2567;}.cls-45{fill:#992568;}.cls-46{fill:#972569;}.cls-47{fill:#95256a;}.cls-48{fill:#92256b;}.cls-49{fill:#90256c;}.cls-50{fill:#8e256d;}.cls-51{fill:#8c256f;}.cls-52{fill:#892570;}.cls-53{fill:#872571;}.cls-54{fill:#852572;}.cls-55{fill:#832573;}.cls-56{fill:#802574;}.cls-57{fill:#7e2575;}.cls-58{fill:#7c2676;}.cls-59{fill:#7a2677;}.cls-60{fill:#772679;}.cls-61{fill:#75267a;}.cls-62{fill:#73267b;}.cls-63{fill:#71267c;}.cls-64{fill:#6e267d;}.cls-65{fill:#6c267e;}.cls-66{fill:#6a267f;}.cls-67{fill:#682680;}.cls-68{fill:#652681;}.cls-69{fill:#632683;}.cls-70{fill:#612684;}.cls-71{fill:#5f2685;}.cls-72{fill:#5c2686;}.cls-73{fill:#5a2687;}.cls-74{fill:#582788;}.cls-75{fill:#562789;}.cls-76{fill:#53278a;}.cls-77{fill:#51278b;}.cls-78{fill:#4f278d;}.cls-79{fill:#4d278e;}.cls-80{fill:#4a278f;}.cls-81{fill:#482790;}.cls-82{fill:#462791;}.cls-83{fill:#482791;}.cls-84{fill:#4a2790;}.cls-85{fill:#4c2790;}.cls-86{fill:#4e2790;}.cls-87{fill:#502690;}.cls-88{fill:#52268f;}.cls-89{fill:#54268f;}.cls-90{fill:#56268f;}.cls-91{fill:#59268e;}.cls-92{fill:#5b268e;}.cls-93{fill:#5d268e;}.cls-94{fill:#5f268d;}.cls-95{fill:#61268d;}.cls-96{fill:#63258d;}.cls-97{fill:#65258d;}.cls-98{fill:#67258c;}.cls-99{fill:#69258c;}.cls-100{fill:#6b258c;}.cls-101{fill:#6d258b;}.cls-102{fill:#6f258b;}.cls-103{fill:#71258b;}.cls-104{fill:#73258a;}.cls-105{fill:#75248a;}.cls-106{fill:#77248a;}.cls-107{fill:#7a248a;}.cls-108{fill:#7c2489;}.cls-109{fill:#7e2489;}.cls-110{fill:#802489;}.cls-111{fill:#822488;}.cls-112{fill:#842488;}.cls-113{fill:#862488;}.cls-114{fill:#882388;}.cls-115{fill:#8a2387;}.cls-116{fill:#8c2387;}.cls-117{fill:#8e2387;}.cls-118{fill:#902386;}.cls-119{fill:#922386;}.cls-120{fill:#942386;}.cls-121{fill:#962385;}.cls-122{fill:#982385;}.cls-123{fill:#9b2285;}.cls-124{fill:#9d2285;}.cls-125{fill:#9f2284;}.cls-126{fill:#a12284;}.cls-127{fill:#a32284;}.cls-128{fill:#a52283;}.cls-129{fill:#a72283;}.cls-130{fill:#a92283;}.cls-131{fill:#ab2282;}.cls-132{fill:#ad2182;}.cls-133{fill:#af2182;}.cls-134{fill:#b12182;}.cls-135{fill:#b32181;}.cls-136{fill:#b52181;}.cls-137{fill:#b72181;}.cls-138{fill:#b92180;}.cls-139{fill:#bc2180;}.cls-140{fill:#be2180;}.cls-141{fill:#c02080;}.cls-142{fill:#c2207f;}.cls-143{fill:#c4207f;}.cls-144{fill:#c6207f;}.cls-145{fill:#c8207e;}.cls-146{fill:#ca207e;}.cls-147{fill:#cc207e;}.cls-148{fill:#ce207d;}.cls-149{fill:#d0207d;}.cls-150{fill:#d21f7d;}.cls-151{fill:#d41f7d;}.cls-152{fill:#d61f7c;}.cls-153{fill:#d81f7c;}.cls-154{fill:#da1f7c;}.cls-155{fill:#dd1f7b;}.cls-156{fill:#df1f7b;}.cls-157{fill:#e11f7b;}.cls-158{fill:#e31f7a;}.cls-159{fill:#e51e7a;}.cls-160{fill:#e71e7a;}.cls-161{fill:#e91e7a;}.cls-162{fill:#eb1e79;}.cls-163{fill:#ed1e79;}.cls-164{fill:#ed1e78;}.cls-165{fill:#ed1e77;}.cls-166{fill:#ee1e77;}.cls-167{fill:#ee1e76;}.cls-168{fill:#ee1e75;}.cls-169{fill:#ee1e74;}.cls-170{fill:#ee1e73;}.cls-171{fill:#ee1e72;}.cls-172{fill:#ef1e72;}.cls-173{fill:#ef1e71;}.cls-174{fill:#ef1f70;}.cls-175{fill:#ef1f6f;}.cls-176{fill:#ef1f6e;}.cls-177{fill:#f01f6e;}.cls-178{fill:#f01f6d;}.cls-179{fill:#f01f6c;}.cls-180{fill:#f01f6b;}.cls-181{fill:#f01f6a;}.cls-182{fill:#f11f6a;}.cls-183{fill:#f11f69;}.cls-184{fill:#f11f68;}.cls-185{fill:#f11f67;}.cls-186{fill:#f11f66;}.cls-187{fill:#f11f65;}.cls-188{fill:#f21f65;}.cls-189{fill:#f21f64;}.cls-190{fill:#f21f63;}.cls-191{fill:#f21f62;}.cls-192{fill:#f21f61;}.cls-193{fill:#f31f61;}.cls-194{fill:#f32060;}.cls-195{fill:#f3205f;}.cls-196{fill:#f3205e;}.cls-197{fill:#f3205d;}.cls-198{fill:#f3205c;}.cls-199{fill:#f4205c;}.cls-200{fill:#f4205b;}.cls-201{fill:#f4205a;}.cls-202{fill:#f42059;}.cls-203{fill:#f42058;}.cls-204{fill:#f52058;}.cls-205{fill:#f52057;}.cls-206{fill:#f52056;}.cls-207{fill:#f52055;}.cls-208{fill:#f52054;}.cls-209{fill:#f62054;}.cls-210{fill:#f62053;}.cls-211{fill:#f62052;}.cls-212{fill:#f62051;}.cls-213{fill:#f62050;}.cls-214{fill:#f6214f;}.cls-215{fill:#f7214f;}.cls-216{fill:#f7214e;}.cls-217{fill:#f7214d;}.cls-218{fill:#f7214c;}.cls-219{fill:#f7214b;}.cls-220{fill:#f8214b;}.cls-221{fill:#f8214a;}.cls-222{fill:#f82149;}.cls-223{fill:#f82148;}.cls-224{fill:#f82147;}.cls-225{fill:#f82146;}.cls-226{fill:#f92146;}.cls-227{fill:#f92145;}.cls-228{fill:#f92144;}.cls-229{fill:#f92143;}.cls-230{fill:#f92142;}.cls-231{fill:#fa2142;}.cls-232{fill:#fa2141;}.cls-233{fill:#fa2140;}.cls-234{fill:#fa223f;}.cls-235{fill:#fa223e;}.cls-236{fill:#fb223e;}.cls-237{fill:#fb223d;}.cls-238{fill:#fb223c;}.cls-239{fill:#fb223b;}.cls-240{fill:#fb223a;}.cls-241{fill:#fb2239;}.cls-242{fill:#fc2239;}.cls-243{fill:#fc2238;}</style></defs><title>Asset_1</title><g id="Layer_2" data-name="Layer 2"><g id="Layer_1-2" data-name="Layer 1"><path class="cls-1" d="M302.16,140.54c-16.71,9.76-28.49,17.73-39.35,17.69S242,150.11,229,127.79s-18-41.86-17.27-60,7.11-34.91,16.78-51.68C237.41.62,253.12-3.18,269.84,2.49s34.48,20.77,47.51,43.09,17.59,41.18,14.71,56.9S318.87,130.78,302.16,140.54Z"/><path class="cls-2" d="M229.32,17.76C238.3,2,254-1.64,271,4.08c16.72,5.65,34.53,20.61,47.6,42.74s17.7,40.88,14.78,56.65-13.17,28.21-29.82,37.94S275.17,159,264.31,159c-11,0-21.17-7.9-34.25-30S212,87.52,212.67,69.43,219.69,34.57,229.32,17.76Z"/><path class="cls-3" d="M230,19.37C239,3.29,254.77-.14,271.91,5.63c16.72,5.65,34.58,20.45,47.69,42.38s17.81,40.57,14.86,56.41c-2.89,15.61-13.16,28.12-29.73,37.82s-28.25,17.5-39.1,17.59c-11.19.09-21.54-7.68-34.66-29.57S212.8,89.06,213.43,71,220.43,36.25,230,19.37Z"/><path class="cls-4" d="M230.38,20.94c9.14-16.37,24.91-19.63,42.25-13.8,16.72,5.64,34.63,20.29,47.77,42s17.93,40.27,14.93,56.16c-2.9,15.56-13.14,28-29.64,37.7s-28.13,17.39-39,17.54c-11.35.17-21.91-7.47-35.08-29.14S213.4,90.56,214,72.59,220.93,37.88,230.38,20.94Z"/><path class="cls-5" d="M230.62,22.47c9.21-16.67,25-19.74,42.55-13.87,16.72,5.63,34.68,20.13,47.86,41.66s18,40,15,55.92c-2.91,15.51-13.12,27.93-29.55,37.58s-28,17.27-38.85,17.5c-11.52.24-22.28-7.25-35.49-28.72S213.8,92,214.35,74.11,221.23,39.47,230.62,22.47Z"/><path class="cls-6" d="M230.66,24C239.93,7,255.76,4.09,273.5,10c16.72,5.62,34.73,20,48,41.3S339.61,91,336.53,107c-2.91,15.45-13.11,27.84-29.46,37.46-16.21,9.52-27.88,17.16-38.72,17.45-11.68.31-22.66-7-35.91-28.29s-18.42-40.18-17.92-58S221.34,41,230.66,24Z"/><path class="cls-7" d="M230.52,25.4c9.34-17.27,25.19-20,43.14-14,16.72,5.62,34.78,19.8,48,40.94s18.23,39.36,15.15,55.42c-3,15.39-13.09,27.75-29.37,37.34-16.1,9.47-27.76,17.05-38.59,17.4-11.85.38-23-6.82-36.32-27.86S214,94.83,214.51,77,221.26,42.51,230.52,25.4Z"/><path class="cls-8" d="M230.19,26.81c9.41-17.56,25.28-20.09,43.44-14,16.72,5.61,34.83,19.64,48.13,40.59S340.1,92.4,337,108.53c-3,15.34-13.07,27.66-29.28,37.22-16,9.42-27.64,16.94-38.47,17.36-12,.46-23.4-6.61-36.74-27.43s-18.6-39.51-18.18-57.25S221,44,230.19,26.81Z"/><path class="cls-9" d="M229.69,28.18C239.16,10.32,255.06,8,273.42,14.07c16.71,5.6,34.88,19.48,48.22,40.23s18.44,38.75,15.29,54.93c-3,15.29-13.05,27.57-29.19,37.1-15.9,9.37-27.52,16.84-38.34,17.31-12.18.53-23.77-6.39-37.15-27s-18.69-39.17-18.31-56.85S220.56,45.4,229.69,28.18Z"/><path class="cls-10" d="M229,29.52c9.54-18.16,25.47-20.32,44-14.17,16.71,5.59,34.93,19.32,48.31,39.87s18.55,38.45,15.36,54.69c-3,15.23-13,27.48-29.11,37-15.8,9.32-27.39,16.73-38.21,17.26-12.35.61-24.14-6.18-37.57-26.58s-18.77-38.83-18.44-56.46S219.94,46.79,229,29.52Z"/><path class="cls-11" d="M228.16,30.81c9.6-18.46,25.56-20.44,44.33-14.23,16.71,5.58,35,19.15,48.4,39.51s18.66,38.14,15.43,54.44c-3,15.18-13,27.39-29,36.86-15.7,9.27-27.27,16.62-38.09,17.22-12.51.68-24.51-6-38-26.15S212.38,100,212.67,82.4,219.16,48.14,228.16,30.81Z"/><path class="cls-12" d="M227.15,32.07c9.66-18.76,25.66-20.56,44.62-14.3,16.71,5.58,35,19,48.49,39.15S339,94.77,335.77,111.13c-3,15.12-13,27.29-28.93,36.75-15.6,9.22-27.15,16.52-38,17.17-12.68.76-24.88-5.75-38.4-25.72s-18.95-38.16-18.7-55.67S218.21,49.45,227.15,32.07Z"/><path class="cls-13" d="M226,33.3c9.72-19.06,25.75-20.67,44.92-14.36,16.71,5.57,35.07,18.83,48.58,38.8s18.88,37.54,15.58,53.95c-3,15.07-13,27.2-28.84,36.63-15.49,9.18-27,16.42-37.83,17.12-12.85.84-25.25-5.53-38.81-25.29s-19-37.83-18.83-55.28S217.1,50.72,226,33.3Z"/><path class="cls-14" d="M224.67,34.49c9.79-19.37,25.84-20.79,45.22-14.42,16.71,5.56,35.12,18.67,48.67,38.44s19,37.23,15.65,53.7c-3,15-13,27.11-28.75,36.51-15.39,9.13-26.91,16.31-37.7,17.07-13,.92-25.62-5.32-39.23-24.86s-19.12-37.49-19-54.88S215.84,52,224.67,34.49Z"/><path class="cls-15" d="M223.2,35.64C233,16,249.13,14.74,268.71,21.16c16.71,5.55,35.17,18.51,48.76,38.08s19.09,36.93,15.72,53.46c-3,15-12.95,27-28.66,36.39-15.29,9.08-26.79,16.21-37.58,17-13.18,1-26-5.1-39.64-24.43s-19.21-37.15-19.09-54.49S214.43,53.17,223.2,35.64Z"/><path class="cls-16" d="M221.59,36.77c9.91-20,26-21.06,45.81-14.54,16.72,5.51,35.22,18.34,48.84,37.72s19.2,36.62,15.8,53.21c-3.06,14.91-12.93,26.93-28.57,36.27-15.19,9-26.67,16.11-37.45,17-13.35,1.07-26.36-4.89-40.06-24s-19.3-36.82-19.22-54.09S212.87,54.35,221.59,36.77Z"/><path class="cls-17" d="M219.83,37.86c10-20.27,26.13-21.18,46.1-14.6,16.72,5.5,35.27,18.18,48.93,37.36s19.31,36.32,15.87,53c-3.07,14.86-12.92,26.84-28.48,36.15-15.09,9-26.55,16-37.32,16.93-13.51,1.15-26.74-4.67-40.47-23.58s-19.38-36.48-19.35-53.7S211.17,55.48,219.83,37.86Z"/><path class="cls-18" d="M217.95,38.92c10-20.58,26.23-21.3,46.4-14.67,16.71,5.49,35.32,18,49,37s19.42,36,15.94,52.72c-3.08,14.8-12.9,26.75-28.39,36-15,8.93-26.42,15.91-37.2,16.89-13.68,1.24-27.11-4.46-40.89-23.15s-19.47-36.15-19.48-53.3S209.34,56.59,217.95,38.92Z"/><path class="cls-19" d="M215.94,39.94c10.08-20.88,26.32-21.42,46.7-14.73C279.35,30.7,298,43.08,311.74,61.86s19.53,35.71,16,52.47c-3.09,14.75-12.88,26.65-28.31,35.91-14.88,8.88-26.3,15.81-37.07,16.84-13.85,1.32-27.48-4.24-41.3-22.72s-19.56-35.81-19.61-52.91S207.38,57.66,215.94,39.94Z"/><path class="cls-20" d="M213.8,40.94c10.14-21.19,26.41-21.53,47-14.79,16.71,5.48,35.42,17.7,49.2,36.29s19.63,35.41,16.09,52.23c-3.1,14.69-12.86,26.56-28.22,35.79-14.78,8.84-26.18,15.72-36.94,16.79-14,1.4-27.85-4-41.72-22.29s-19.64-35.47-19.74-52.51S205.29,58.7,213.8,40.94Z"/><path class="cls-21" d="M211.54,41.9c10.2-21.49,26.51-21.65,47.29-14.85C275.54,32.52,294.3,44.59,308.12,63s19.74,35.11,16.16,52c-3.11,14.64-12.85,26.47-28.13,35.67-14.68,8.79-26.06,15.62-36.82,16.75-14.18,1.48-28.22-3.81-42.13-21.86s-19.73-35.14-19.87-52.12S203.09,59.71,211.54,41.9Z"/><path class="cls-22" d="M209.17,42.83c10.25-21.8,26.6-21.77,47.59-14.91,16.71,5.46,35.52,17.37,49.38,35.57S326,98.3,322.36,115.23c-3.12,14.59-12.83,26.38-28,35.55-14.58,8.74-25.94,15.52-36.69,16.7C243.29,169,229,163.88,215.09,146s-19.82-34.8-20-51.72S200.77,60.69,209.17,42.83Z"/><path class="cls-23" d="M206.68,43.74c10.31-22.1,26.69-21.89,47.88-15A105.49,105.49,0,0,1,304,64c13.89,18,20,34.5,16.3,51.49-3.13,14.53-12.81,26.29-27.95,35.43-14.48,8.69-25.82,15.43-36.56,16.65-14.52,1.65-29-3.38-43-21S193,112.08,192.73,95.22,198.34,61.64,206.68,43.74Z"/><path class="cls-24" d="M204.1,44.62c10.36-22.41,26.79-22,48.18-15a106.33,106.33,0,0,1,49.56,34.86c13.93,17.81,20.07,34.2,16.37,51.24-3.14,14.48-12.79,26.2-27.86,35.31-14.38,8.64-25.7,15.33-36.43,16.6-14.68,1.74-29.33-3.17-43.38-20.58s-20-34.13-20.26-50.94S195.8,62.56,204.1,44.62Z"/><path class="cls-25" d="M201.41,45.46c10.42-22.71,26.88-22.12,48.48-15.1a107.22,107.22,0,0,1,49.65,34.5c14,17.61,20.18,33.89,16.45,51-3.15,14.43-12.78,26.11-27.77,35.19-14.27,8.59-25.58,15.24-36.31,16.56-14.85,1.82-29.7-3-43.8-20.15S188,113.67,187.72,96.92,193.16,63.45,201.41,45.46Z"/><path class="cls-26" d="M198.63,46.29c10.47-23,27-22.24,48.77-15.16a108.14,108.14,0,0,1,49.74,34.14c14,17.42,20.29,33.59,16.52,50.75-3.16,14.37-12.76,26-27.68,35.08-14.17,8.54-25.46,15.15-36.18,16.51-15,1.91-30.07-2.74-44.21-19.72s-20.17-33.46-20.52-50.15S190.43,64.32,198.63,46.29Z"/><path class="cls-27" d="M195.76,47.08c10.52-23.33,27.06-22.36,49.07-15.22,16.7,5.42,35.77,16.56,49.82,33.78s20.4,33.29,16.59,50.5c-3.17,14.32-12.74,25.92-27.59,35-14.07,8.5-25.33,15.05-36.05,16.46-15.19,2-30.44-2.52-44.63-19.29s-20.26-33.12-20.65-49.75S187.6,65.16,195.76,47.08Z"/><path class="cls-28" d="M192.8,47.85C203.37,24.21,220,25.38,242.16,32.57,258.87,38,278,49,292.08,66s20.51,33,16.66,50.26c-3.18,14.26-12.72,25.83-27.51,34.84-14,8.45-25.21,15-35.93,16.42-15.35,2.08-30.82-2.31-45-18.87s-20.34-32.79-20.78-49.36S184.69,66,192.8,47.85Z"/><path class="cls-29" d="M189.76,48.59C200.39,24.65,217,26,239.42,33.25c16.7,5.4,35.87,16.24,50,33.07S310,99,306.16,116.33C303,130.54,293.45,142.07,278.74,151c-13.87,8.4-25.09,14.87-35.8,16.37-15.52,2.17-31.19-2.09-45.46-18.44s-20.43-32.45-20.91-49S181.7,66.76,189.76,48.59Z"/><path class="cls-30" d="M186.64,49.31c10.68-24.25,27.34-22.71,50-15.4C253.3,39.3,272.53,50,286.69,66.62S307.43,99,303.5,116.38c-3.19,14.16-12.69,25.65-27.33,34.6-13.77,8.35-25,14.78-35.67,16.32-15.69,2.26-31.56-1.88-45.87-18s-20.52-32.11-21-48.57S178.63,67.52,186.64,49.31Z"/><path class="cls-31" d="M183.46,50c10.73-24.56,27.44-22.82,50.25-15.47,16.7,5.39,36,15.92,50.18,32.35S304.74,99,300.78,116.41c-3.2,14.1-12.67,25.56-27.24,34.48-13.66,8.3-24.85,14.69-35.55,16.27-15.86,2.35-31.93-1.66-46.29-17.58s-20.6-31.78-21.17-48.17S175.49,68.26,183.46,50Z"/><path class="cls-32" d="M180.21,50.68C191,25.81,207.74,27.74,230.76,35.16c16.7,5.38,36,15.75,50.27,32s21,31.77,17,49.27c-3.21,14.05-12.66,25.47-27.15,34.36-13.56,8.25-24.73,14.6-35.42,16.23-16,2.44-32.3-1.45-46.7-17.15s-20.69-31.44-21.3-47.78S172.28,69,180.21,50.68Z"/><path class="cls-33" d="M176.9,51.33c10.82-25.18,27.62-23.06,50.85-15.59,16.7,5.37,36.07,15.59,50.36,31.63s21.06,31.47,17,49c-3.22,14-12.64,25.38-27.06,34.24-13.46,8.2-24.61,14.51-35.29,16.18-16.19,2.53-32.67-1.23-47.12-16.72S164.88,119,164.23,102.72,169,69.67,176.9,51.33Z"/><path class="cls-34" d="M173.53,52c10.87-25.49,27.72-23.18,51.14-15.65,16.69,5.36,36.12,15.43,50.45,31.28s21.17,31.16,17.1,48.78c-3.23,13.94-12.62,25.28-27,34.12-13.36,8.16-24.48,14.42-35.17,16.13-16.36,2.63-33-1-47.53-16.3s-20.87-30.77-21.56-47S165.69,70.34,173.53,52Z"/><path class="cls-35" d="M170.11,52.57c10.92-25.8,27.81-23.29,51.44-15.71,16.69,5.35,36.17,15.27,50.54,30.92s21.29,30.86,17.17,48.54c-3.23,13.89-12.6,25.19-26.88,34-13.26,8.11-24.36,14.33-35,16.09-16.52,2.72-33.41-.8-47.95-15.87s-21-30.43-21.69-46.6S162.31,71,170.11,52.57Z"/><path class="cls-36" d="M166.64,53.16c11-26.11,27.9-23.41,51.74-15.77C235.07,42.73,254.6,52.49,269,67.95s21.4,30.56,17.24,48.29c-3.24,13.84-12.59,25.1-26.79,33.88-13.16,8.06-24.24,14.24-34.91,16-16.69,2.81-33.78-.59-48.36-15.44s-21-30.1-21.82-46.2S158.88,71.62,166.64,53.16Z"/><path class="cls-37" d="M163.13,53.73c11-26.42,28-23.52,52-15.83,16.69,5.34,36.27,14.94,50.72,30.2s21.51,30.25,17.31,48c-3.25,13.78-12.55,25-26.71,33.76-13,8-24.12,14.15-34.78,16-16.85,2.91-34.15-.37-48.78-15S151.8,121.12,151,105.08,155.42,72.23,163.13,53.73Z"/><path class="cls-38" d="M159.58,54.28c11.05-26.73,28.09-23.64,52.33-15.9,16.69,5.33,36.32,14.78,50.81,29.84s21.62,30,17.39,47.8c-3.26,13.73-12.53,24.95-26.62,33.64-12.94,8-24,14.06-34.66,15.95-17,3-34.53-.16-49.19-14.58s-21.21-29.42-22.08-45.41S151.91,72.82,159.58,54.28Z"/><path class="cls-39" d="M156,54.81c11.1-27,28.18-23.76,52.63-16,16.69,5.32,36.37,14.62,50.89,29.48S281.26,98,277,115.89c-3.26,13.68-12.52,24.86-26.53,33.53-12.83,7.94-23.87,14-34.53,15.9-17.19,3.1-34.9.06-49.61-14.15s-21.3-29.09-22.21-45S148.37,73.39,156,54.81Z"/><path class="cls-40" d="M152.4,55.32c11.14-27.35,28.27-23.87,52.92-16,16.69,5.32,36.42,14.46,51,29.13s21.84,29.35,17.53,47.31c-3.27,13.62-12.5,24.77-26.44,33.41C234.66,157,223.65,163,213,165c-17.35,3.19-35.27.27-50-13.73s-21.39-28.75-22.34-44.62S144.81,73.95,152.4,55.32Z"/><path class="cls-41" d="M148.77,55.81C160,28.15,177.13,31.82,202,39.73,218.67,45,238.46,54,253.06,68.5s22,29,17.6,47.06c-3.28,13.57-12.48,24.68-26.35,33.29-12.63,7.84-23.63,13.8-34.28,15.8-17.52,3.29-35.64.49-50.44-13.3s-21.48-28.42-22.47-44.23S141.22,74.49,148.77,55.81Z"/><path class="cls-42" d="M145.12,56.29c11.22-28,28.46-24.11,53.51-16.14,16.68,5.3,36.52,14.13,51.16,28.41s22.07,28.74,17.68,46.81C264.19,128.9,255,140,241.22,148.54c-12.53,7.79-23.51,13.72-34.15,15.76-17.68,3.39-36,.7-50.85-12.87s-21.56-28.08-22.6-43.83S137.62,75,145.12,56.29Z"/><path class="cls-43" d="M141.47,56.76c11.27-28.29,28.55-24.22,53.81-16.2,16.68,5.3,36.57,14,51.25,28.05S268.71,97,264.28,115.17c-3.29,13.47-12.45,24.49-26.17,33-12.43,7.75-23.38,13.63-34,15.71-17.85,3.49-36.38.92-51.27-12.44s-21.65-27.74-22.73-43.44S134,75.51,141.47,56.76Z"/><path class="cls-44" d="M137.8,57.21c11.31-28.6,28.64-24.34,54.11-16.27,16.68,5.29,36.62,13.81,51.34,27.69S265.54,96.77,261.07,115c-3.3,13.41-12.43,24.4-26.08,32.93-12.33,7.7-23.26,13.55-33.9,15.66-18,3.59-36.75,1.13-51.68-12s-21.74-27.41-22.86-43S130.37,76,137.8,57.21Z"/><path class="cls-45" d="M134.13,57.64c11.35-28.91,28.74-24.45,54.4-16.33C205.21,46.6,225.21,55,240,68.65s22.41,27.83,17.89,46.08c-3.3,13.36-12.41,24.31-26,32.81-12.22,7.65-23.14,13.46-33.77,15.62-18.18,3.69-37.12,1.35-52.1-11.58s-21.82-27.07-23-42.65S126.74,76.48,134.13,57.64Z"/><path class="cls-46" d="M130.46,58.06c11.38-29.22,28.83-24.57,54.7-16.39,16.68,5.27,36.72,13.49,51.52,27s22.52,27.53,18,45.83c-3.31,13.31-12.39,24.22-25.91,32.69-12.12,7.6-23,13.38-33.64,15.57-18.34,3.79-37.49,1.56-52.51-11.16s-21.91-26.74-23.12-42.26S123.11,76.94,130.46,58.06Z"/><path class="cls-47" d="M126.8,58.47c11.42-29.54,28.92-24.69,55-16.45,16.68,5.27,36.77,13.32,51.61,26.62s22.63,27.23,18,45.58c-3.32,13.25-12.38,24.13-25.82,32.57-12,7.55-22.89,13.29-33.52,15.52-18.51,3.89-37.86,1.78-52.93-10.73s-22-26.4-23.25-41.86S119.49,77.39,126.8,58.47Z"/><path class="cls-48" d="M123.15,58.87c11.46-29.85,29-24.8,55.29-16.51,16.67,5.26,36.82,13.16,51.7,26.26S252.89,95.54,248.25,114c-3.32,13.2-12.36,24-25.73,32.45-11.92,7.5-22.77,13.21-33.39,15.47-18.67,4-38.23,2-53.34-10.3s-22.09-26.06-23.38-41.47S115.87,77.82,123.15,58.87Z"/><path class="cls-49" d="M119.52,59.25c11.5-30.16,29.11-24.92,55.59-16.57,16.67,5.25,36.87,13,51.79,25.9s22.86,26.62,18.18,45.09c-3.33,13.15-12.34,23.95-25.64,32.33-11.82,7.45-22.65,13.12-33.26,15.43-18.84,4.09-38.61,2.21-53.76-9.87s-22.17-25.73-23.51-41.07S112.28,78.25,119.52,59.25Z"/><path class="cls-50" d="M115.91,59.62c11.53-30.48,29.2-25,55.89-16.63,16.67,5.25,36.92,12.84,51.87,25.55s23,26.32,18.25,44.85c-3.34,13.1-12.32,23.85-25.55,32.21-11.72,7.41-22.52,13-33.13,15.38-19,4.19-39,2.42-54.17-9.44s-22.26-25.39-23.64-40.68S108.7,78.66,115.91,59.62Z"/><path class="cls-51" d="M112.32,60c11.57-30.79,29.29-25.15,56.18-16.7,16.67,5.24,37,12.68,52,25.19s23.09,26,18.33,44.6c-3.34,13-12.31,23.76-25.46,32.09-11.61,7.36-22.4,13-33,15.33-19.17,4.3-39.35,2.64-54.59-9S103.39,126.44,102,111.21,105.15,79.06,112.32,60Z"/><path class="cls-52" d="M108.77,60.34c11.6-31.1,29.38-25.26,56.48-16.76,16.67,5.23,37,12.51,52.05,24.83s23.2,25.71,18.4,44.35c-3.35,13-12.29,23.67-25.37,32C198.81,152,188,157.61,177.44,160c-19.33,4.4-39.72,2.85-55-8.59S100,126.72,98.54,111.55,101.64,79.46,108.77,60.34Z"/><path class="cls-53" d="M105.25,60.68C116.88,29.27,134.72,35.31,162,43.87c16.67,5.22,37.07,12.35,52.14,24.47s23.32,25.41,18.47,44.11c-3.35,12.94-12.27,23.58-25.28,31.86-11.41,7.26-22.15,12.79-32.75,15.24-19.49,4.51-40.09,3.07-55.42-8.16s-22.52-24.38-24-39.49S98.15,79.84,105.25,60.68Z"/><path class="cls-54" d="M101.77,61c11.67-31.73,29.57-25.49,57.07-16.88C175.5,49.36,196,56.33,211.07,68.25s23.43,25.11,18.54,43.86c-3.36,12.88-12.26,23.49-25.19,31.74-11.31,7.21-22,12.71-32.63,15.19-19.66,4.61-40.46,3.28-55.84-7.73s-22.61-24-24.16-39.1S94.71,80.22,101.77,61Z"/><path class="cls-55" d="M98.33,61.35C110,29.3,128,35.74,155.7,44.41c16.66,5.21,37.17,12,52.32,23.75S231.57,93,226.64,111.78c-3.36,12.83-12.24,23.4-25.11,31.62-11.21,7.16-21.91,12.62-32.5,15.15-19.82,4.72-40.83,3.5-56.25-7.3s-22.7-23.71-24.29-38.7S91.31,80.58,98.33,61.35Z"/><path class="cls-56" d="M95,61.67c11.73-32.36,29.75-25.72,57.66-17,16.66,5.2,37.22,11.87,52.41,23.4s23.66,24.51,18.69,43.37c-3.37,12.78-12.22,23.3-25,31.5-11.11,7.11-21.78,12.54-32.37,15.1-20,4.83-41.2,3.71-56.67-6.87s-22.78-23.38-24.42-38.31S88,80.95,95,61.67Z"/><path class="cls-57" d="M91.62,62c11.76-32.68,29.84-25.84,58-17.07,16.66,5.2,37.27,11.7,52.5,23s23.78,24.2,18.76,43.12c-3.37,12.73-12.2,23.21-24.93,31.38-11,7.06-21.66,12.46-32.25,15.05-20.14,4.93-41.57,3.93-57.08-6.44S83.72,128,82,113.16,84.67,81.3,91.62,62Z"/><path class="cls-58" d="M88.36,62.29c11.79-33,29.92-25.9,58.26-17.13,16.65,5.22,37.32,11.54,52.59,22.68s23.89,23.9,18.83,42.88c-3.38,12.67-12.19,23.12-24.84,31.26-10.9,7-21.54,12.38-32.12,15-20.31,5-41.94,4.14-57.5-6s-23-22.7-24.68-37.52S81.44,81.64,88.36,62.29Z"/><path class="cls-59" d="M85.15,62.59c11.82-33.31,30-26,58.55-17.19,16.65,5.22,37.37,11.38,52.68,22.32s24,23.6,18.91,42.63c-3.38,12.62-12.17,23-24.75,31.14-10.8,7-21.41,12.3-32,15-20.47,5.15-42.32,4.36-57.91-5.59s-23-22.37-24.81-37.13S78.27,82,85.15,62.59Z"/><path class="cls-60" d="M82,62.89c11.85-33.62,30.1-26.13,58.85-17.25,16.64,5.21,37.42,11.22,52.77,22s24.12,23.3,19,42.39c-3.39,12.57-12.15,22.94-24.66,31-10.7,6.92-21.29,12.21-31.87,14.91-20.63,5.26-42.69,4.57-58.33-5.16s-23.13-22-24.94-36.73S75.17,82.33,82,62.89Z"/><path class="cls-61" d="M79,63.19c11.88-33.94,30.2-26.25,59.15-17.31,16.64,5.2,37.47,11.06,52.86,21.61s24.24,23,19.05,42.14c-3.39,12.52-12.14,22.85-24.57,30.9-10.6,6.87-21.16,12.13-31.74,14.86-20.79,5.37-43.06,4.79-58.74-4.73S71.74,129,69.9,114.32,72.14,82.66,79,63.19Z"/><path class="cls-62" d="M76,63.49c11.91-34.25,30.29-26.36,59.44-17.37,16.64,5.19,37.52,10.89,52.94,21.25s24.35,22.69,19.12,41.89C204.1,121.72,195.37,132,183,140c-10.5,6.82-21,12.05-31.61,14.82-21,5.48-43.43,5-59.16-4.3S68.93,129.19,67,114.61,69.2,83,76,63.49Z"/><path class="cls-63" d="M73.09,63.78C85,29.21,103.47,37.3,132.83,46.35c16.64,5.19,37.57,10.73,53,20.89s24.47,22.39,19.2,41.65c-3.4,12.41-12.1,22.66-24.39,30.66-10.4,6.77-20.91,12-31.48,14.77-21.11,5.59-43.8,5.22-59.57-3.87s-23.39-21-25.33-35.55S66.34,83.33,73.09,63.78Z"/><path class="cls-64" d="M70.28,64.07c12-34.89,30.48-26.59,60-17.5,16.64,5.18,37.62,10.57,53.12,20.53S208,89.2,202.71,108.51c-3.4,12.36-12.09,22.57-24.31,30.54-10.3,6.72-20.79,11.89-31.36,14.72-21.27,5.7-44.17,5.43-60-3.45S63.58,129.64,61.6,115.18,63.56,83.66,70.28,64.07Z"/><path class="cls-65" d="M67.57,64.36c12-35.2,30.57-26.71,60.33-17.56C144.54,52,165.57,57.21,181.11,67s24.7,21.79,19.34,41.16c-3.41,12.31-12.08,22.45-24.22,30.42C166,145.21,155.57,150.37,145,153.24c-21.43,5.82-44.54,5.65-60.4-3S61,129.87,59,115.46,60.88,84,67.57,64.36Z"/><path class="cls-66" d="M65,64.65C77,29.14,95.62,37.83,125.58,47c16.64,5.16,37.72,10.25,53.3,19.82s24.82,21.49,19.41,40.91c-3.41,12.25-12.07,22.36-24.13,30.31-10.11,6.6-20.54,11.73-31.1,14.63-21.59,5.93-44.91,5.86-60.82-2.59s-23.66-20-25.71-34.36S58.3,84.32,65,64.65Z"/><path class="cls-67" d="M62.44,64.95C74.48,29.11,93.2,38,123.37,47.27c16.63,5.16,37.77,10.08,53.39,19.46s24.94,21.19,19.48,40.66c-3.42,12.2-12,22.27-24,30.19a111.85,111.85,0,0,1-31,14.58c-21.75,6-45.28,6.08-61.23-2.16s-23.74-19.68-25.84-34S55.83,84.66,62.44,64.95Z"/><path class="cls-68" d="M60,65.24C72.1,29.09,90.89,38.18,121.26,47.5c16.63,5.15,37.82,9.92,53.48,19.1S199.8,87.48,194.3,107c-3.42,12.15-12,22.18-23.95,30.07a112,112,0,0,1-30.85,14.53c-21.91,6.16-45.65,6.29-61.65-1.73s-23.83-19.34-26-33.58S53.46,85,60,65.24Z"/><path class="cls-69" d="M57.76,65.53c12.08-36.47,30.94-27.17,61.52-17.8,16.63,5.14,37.87,9.76,53.57,18.74S198,87.06,192.47,106.64c-3.42,12.1-12,22.09-23.86,29.95a112.12,112.12,0,0,1-30.72,14.49c-22.07,6.27-46,6.51-62.06-1.3s-23.92-19-26.1-33.18S51.2,85.32,57.76,65.53Z"/><path class="cls-70" d="M55.59,65.83C67.69,29,86.62,38.54,117.4,48c16.63,5.13,37.92,9.6,53.66,18.38s25.29,20.28,19.7,39.93c-3.43,12-12,22-23.77,29.83a112.26,112.26,0,0,1-30.6,14.44c-22.23,6.39-46.4,6.72-62.48-.88s-24-18.67-26.23-32.79S49.06,85.66,55.59,65.83Z"/><path class="cls-71" d="M53.54,66.13C65.66,29,84.66,38.73,115.65,48.21c16.63,5.12,38,9.44,53.75,18s25.41,20,19.77,39.68c-3.43,12-12,21.91-23.68,29.71A112.39,112.39,0,0,1,135,150c-22.39,6.5-46.77,6.94-62.89-.45S48,131.23,45.76,117.17,47,86,53.54,66.13Z"/><path class="cls-72" d="M51.62,66.44C63.77,29,82.84,38.91,114,48.45c16.63,5.12,38,9.27,53.84,17.67s25.53,19.68,19.85,39.43c-3.44,11.94-12,21.81-23.59,29.59a112.51,112.51,0,0,1-30.34,14.35c-22.55,6.62-47.14,7.15-63.31,0s-24.18-18-26.49-32S45.16,86.34,51.62,66.44Z"/><path class="cls-73" d="M49.83,66.75C62,29,81.14,39.11,112.54,48.7c16.63,5.11,38.07,9.11,53.92,17.31s25.65,19.38,19.92,39.19c-3.44,11.89-11.95,21.72-23.5,29.47A112.63,112.63,0,0,1,132.66,149c-22.71,6.74-47.51,7.37-63.72.41s-24.27-17.66-26.62-31.6S43.4,86.69,49.83,66.75Z"/><path class="cls-74" d="M48.19,67.06C60.37,29,79.59,39.31,111.19,49c16.62,5.1,38.12,9,54,17S191,85,185.19,104.84c-3.44,11.84-11.93,21.63-23.42,29.35a112.75,112.75,0,0,1-30.09,14.25c-22.86,6.86-47.88,7.58-64.14.84S43.19,132,40.79,118.08,41.79,87,48.19,67.06Z"/><path class="cls-75" d="M46.68,67.38C58.88,29,78.17,39.51,110,49.21,126.6,54.3,148.14,58,164.08,65.8S190,84.58,184.14,104.5c-3.45,11.79-11.91,21.54-23.33,29.23a112.86,112.86,0,0,1-30,14.2c-23,7-48.25,7.8-64.55,1.27s-24.44-17-26.88-30.81S40.31,87.41,46.68,67.38Z"/><path class="cls-76" d="M45.32,67.71c12.22-38.69,31.59-28,63.59-18.23,16.62,5.09,38.22,8.63,54.19,16.23s26,18.48,20.14,38.45c-3.45,11.73-11.89,21.45-23.24,29.11a113,113,0,0,1-29.83,14.16c-23.18,7.09-48.62,8-65,1.69s-24.53-16.65-27-30.42S39,87.77,45.32,67.71Z"/><path class="cls-77" d="M44.11,68C56.35,29,75.79,39.94,108,49.75c16.62,5.08,38.27,8.47,54.28,15.88s26.16,18.19,20.21,38.2c-3.43,11.69-11.88,21.36-23.15,29a113.08,113.08,0,0,1-29.71,14.11c-23.34,7.21-49,8.23-65.38,2.12S39.63,132.74,37.1,119,37.8,88.15,44.11,68Z"/><path class="cls-78" d="M43.06,68.39C55.31,29.06,74.83,40.17,107.24,50c16.62,5.07,38.32,8.3,54.37,15.52s26.28,17.89,20.28,38c-3.44,11.64-11.86,21.27-23.06,28.87a113.18,113.18,0,0,1-29.58,14.06c-23.49,7.33-49.36,8.44-65.8,2.55s-24.7-16-27.27-29.63S36.78,88.53,43.06,68.39Z"/><path class="cls-79" d="M42.17,68.74C54.44,29.09,74,40.4,106.65,50.32c16.62,5.06,38.37,8.14,54.46,15.16s26.39,17.58,20.35,37.71c-3.44,11.58-11.84,21.17-23,28.76A113.28,113.28,0,0,1,129,146c-23.65,7.45-49.73,8.66-66.22,3S38,133.3,35.42,119.71,35.93,88.92,42.17,68.74Z"/><path class="cls-80" d="M41.45,69.1c12.23-40,32-28.45,64.78-18.48,16.62,5.06,38.42,8,54.55,14.8s26.5,17.28,20.42,37.47c-3.45,11.53-11.82,21.08-22.88,28.64a113.37,113.37,0,0,1-29.33,14c-23.81,7.57-50.11,8.87-66.63,3.41s-24.88-15.31-27.53-28.84S35.21,89.31,41.45,69.1Z"/><path class="cls-81" d="M40.91,69.47C53.18,29.18,73,40.9,106,50.92c16.62,5,38.47,7.82,54.64,14.44s26.61,17,20.5,37.22c-3.46,11.48-11.81,21-22.79,28.52A113,113,0,0,1,129.12,145c-24,7.72-50.48,9.09-67,3.84s-25-15-27.66-28.45S34.7,89.72,40.91,69.47Z"/><path class="cls-82" d="M181.2,102.31c-6.16,20.3-27.66,34.45-51.78,42.27s-50.85,9.3-67.46,4.26S36.91,134.2,34.17,120.79s.21-30.64,6.36-50.94c12.32-40.6,32.14-28.68,65.37-18.6,16.61,5,38.52,7.66,54.73,14.09S187.36,82,181.2,102.31Z"/><path class="cls-83" d="M36.27,69.59C48.73,29.59,69,41.14,101.83,51.1c16.52,5,38.26,7.6,54.33,14s26.87,17.41,21,37.52a42.91,42.91,0,0,1-5.09,11.21c-5.66,8.76-14.88,16.71-25.2,22.54a111.8,111.8,0,0,1-21.72,9.13c-21.27,6.59-45,8-61.47,4.8a58.35,58.35,0,0,1-5.86-1.5c-16.41-5-25.17-15-27.88-28.26a61.16,61.16,0,0,1-1.09-14.48C29.27,95.42,32.06,83.1,36.27,69.59Z"/><path class="cls-84" d="M32.35,69.54C45,30.13,65.67,41.41,98.1,51.16c16.41,4.93,38,7.6,53.94,14,15.79,6.33,27,18.16,21.42,38.07a41.85,41.85,0,0,1-5,11.37c-5.57,8.66-15.13,17.2-25.28,23a103.08,103.08,0,0,1-22,9.07c-21.09,6.23-45.14,7-61.35,3.9A58.67,58.67,0,0,1,54,149c-16.2-4.92-25.29-15.39-28-28.47a63.75,63.75,0,0,1-1.22-14.5C25.17,95.34,28.06,82.94,32.35,69.54Z"/><path class="cls-85" d="M28.75,69.72C41.5,30.9,62.66,41.86,94.7,51.44c16.31,4.88,37.71,7.57,53.54,14,15.58,6.28,27.18,18.9,21.84,38.62a41.05,41.05,0,0,1-4.93,11.53c-5.49,8.56-15.38,17.7-25.36,23.54a95.77,95.77,0,0,1-22.19,9c-20.9,5.88-45.22,6.08-61.24,3a59,59,0,0,1-5.84-1.62c-16-4.85-25.41-15.76-28.06-28.68a66.5,66.5,0,0,1-1.36-14.51C21.39,95.49,24.39,83,28.75,69.72Z"/><path class="cls-86" d="M25.48,70.1C38.36,31.88,60,42.52,91.62,51.93c16.21,4.82,37.44,7.54,53.15,13.91C160.13,72.07,172.11,85.49,167,105a40.3,40.3,0,0,1-4.84,11.69c-5.41,8.46-15.63,18.21-25.44,24a89.58,89.58,0,0,1-22.42,8.94c-20.7,5.54-45.31,5.14-61.12,2.1a59.43,59.43,0,0,1-5.83-1.69C31.58,145.3,21.84,134,19.24,121.2a69.42,69.42,0,0,1-1.5-14.53C17.94,95.85,21,83.29,25.48,70.1Z"/><path class="cls-87" d="M22.53,70.67c13-37.62,35.09-27.3,66.32-18.05C105,57.39,126,60.13,141.61,66.48c15.15,6.18,27.51,20.41,22.68,39.72a39.59,39.59,0,0,1-4.76,11.86c-5.33,8.35-15.88,18.71-25.52,24.55-6.89,4.17-15,6.93-22.65,8.87-20.51,5.2-45.4,4.2-61,1.2a59.87,59.87,0,0,1-5.82-1.75c-15.59-4.73-25.66-16.51-28.23-29.1a72.53,72.53,0,0,1-1.64-14.54C14.8,96.39,18,83.77,22.53,70.67Z"/><path class="cls-88" d="M19.88,71.44c13.12-37,35.68-27,66.52-17.94,16,4.72,36.91,7.48,52.36,13.82,14.94,6.12,27.69,21.17,23.11,40.27a38.93,38.93,0,0,1-4.68,12c-5.24,8.25-16.13,19.23-25.59,25-6.94,4.27-15.22,7-22.89,8.81-20.3,4.86-45.49,3.26-60.88.29A60.34,60.34,0,0,1,42,151.94c-15.38-4.67-25.78-16.89-28.32-29.31a75.84,75.84,0,0,1-1.78-14.56C12,97.13,15.28,84.44,19.88,71.44Z"/><path class="cls-89" d="M17.54,72.38C30.78,36,53.81,45.63,84.25,54.55c15.91,4.66,36.64,7.45,52,13.77,14.73,6.07,27.87,21.93,23.53,40.82a38.31,38.31,0,0,1-4.59,12.18c-5.17,8.15-16.37,19.74-25.67,25.55-7,4.37-15.42,7-23.12,8.74-20.09,4.53-45.58,2.32-60.77-.61a60.86,60.86,0,0,1-5.8-1.87c-15.18-4.6-25.9-17.26-28.4-29.52A79.37,79.37,0,0,1,9.47,109C9.45,98,12.85,85.29,17.54,72.38Z"/><path class="cls-90" d="M15.5,73.5C28.84,37.67,52.35,47,82.39,55.78,98.2,60.39,118.76,63.21,134,69.51c14.52,6,28.06,22.69,24,41.36-.92,4.18-2.07,8.49-4.51,12.34-5.09,8-16.61,20.26-25.75,26.05-7,4.47-15.62,7-23.36,8.68-19.88,4.21-45.66,1.38-60.65-1.51-1.87-.36-4.13-1.43-5.79-1.94-15-4.54-26-17.64-28.49-29.73-.81-4-2-9.88-2.06-14.59C7.23,99.13,10.73,86.31,15.5,73.5Z"/><path class="cls-91" d="M13.75,74.79c13.45-35.23,37.44-26.2,67.09-17.61,15.71,4.55,36.1,7.39,51.18,13.68,14.31,6,28.26,23.46,24.38,41.91-.89,4.21-2,8.6-4.43,12.51-5,7.94-16.86,20.78-25.83,26.56-7.1,4.57-15.81,7.07-23.59,8.61-19.66,3.9-45.75.44-60.53-2.41-1.84-.35-4.15-1.5-5.78-2-14.77-4.48-26.14-18-28.58-29.94-.8-3.93-2.13-10-2.2-14.61C5.29,100.38,8.89,87.51,13.75,74.79Z"/><path class="cls-92" d="M12.28,76.23c13.54-34.63,38-25.93,67.28-17.5,15.61,4.5,35.83,7.37,50.78,13.64,14.1,5.91,28.46,24.23,24.8,42.46-.85,4.25-1.86,8.72-4.34,12.67-4.93,7.83-17.1,21.31-25.91,27.06-7.16,4.67-16,7.1-23.83,8.55-19.43,3.6-45.84-.5-60.41-3.31-1.81-.35-4.16-1.57-5.77-2.06-14.56-4.42-26.26-18.39-28.67-30.15-.79-3.87-2.24-10-2.33-14.62C3.64,101.79,7.34,88.86,12.28,76.23Z"/><path class="cls-93" d="M11.09,77.84c13.63-34,38.62-25.66,67.47-17.39C94.07,64.9,114.12,67.79,128.95,74c13.89,5.86,28.67,25,25.22,43-.82,4.29-1.75,8.83-4.26,12.83-4.85,7.73-17.33,21.84-26,27.56-7.22,4.78-16.18,7.13-24.06,8.48-19.2,3.3-45.93-1.44-60.3-4.21-1.79-.34-4.17-1.64-5.76-2.12-14.36-4.36-26.38-18.76-28.75-30.35-.78-3.82-2.35-10.12-2.47-14.64C2.27,103.36,6.07,90.38,11.09,77.84Z"/><path class="cls-94" d="M10.18,79.6C23.89,46.16,49.39,54.21,77.84,62.32c15.41,4.39,35.29,7.31,50,13.55,13.68,5.8,28.89,25.78,25.65,43.56-.79,4.34-1.64,8.94-4.18,13-4.77,7.62-17.57,22.37-26.06,28.06-7.28,4.88-16.36,7.16-24.3,8.42-19,3-46-2.38-60.18-5.11-1.76-.34-4.18-1.71-5.75-2.19C18.85,157.31,6.5,142.47,4.16,131c-.77-3.76-2.46-10.21-2.61-14.65C1.18,105.08,5.06,92.06,10.18,79.6Z"/><path class="cls-95" d="M9.53,81.51C23.32,48.67,49.33,56.39,77.38,64.34c15.31,4.34,35,7.28,49.6,13.5C140.44,83.59,156.09,104.4,153,122c-.76,4.38-1.53,9.05-4.1,13.16-4.7,7.52-17.81,22.9-26.14,28.57-7.33,5-16.54,7.18-24.53,8.35-18.73,2.73-46.1-3.32-60.06-6-1.74-.33-4.2-1.78-5.74-2.25C18.53,159.54,5.85,144.25,3.55,133,2.79,129.29,1,122.71.8,118.33.35,107,4.33,93.89,9.53,81.51Z"/><path class="cls-96" d="M9.14,83C23,50.72,49.54,58.11,77.18,65.9c15.21,4.29,34.75,7.25,49.21,13.46,13.25,5.69,29.34,27.34,26.49,44.66-.73,4.42-1.42,9.17-4,13.32-4.62,7.41-18,23.44-26.22,29.07-7.39,5.09-16.65,8.68-24.77,8.29-17.74,5.75-46.19-4.26-59.94-6.91-1.71-.33-4.21-1.85-5.73-2.31-13.74-4.17-26.75-19.89-29-31C2.44,130.83.5,124.12.3,119.8-.22,108.36,3.85,95.27,9.14,83Z"/><path class="cls-97" d="M9,85.17C22.92,53.53,50,60.59,77.24,68.23c15.11,4.23,34.48,7.22,48.81,13.41,13,5.64,29.58,28.13,26.91,45.2-.7,4.47-1.31,9.28-3.93,13.48-4.54,7.3-18.27,24-26.3,29.57-7.45,5.19-16.85,8.82-25,8.22-17.47,5.67-46.28-5.2-59.83-7.81-1.69-.32-4.22-1.92-5.72-2.37-13.54-4.11-26.87-20.26-29.1-31.19-.74-3.6-2.81-10.45-3-14.7C-.53,110.53,3.63,97.41,9,85.17Z"/><path class="cls-98" d="M9.13,87.53c14-31,41.58-24.31,68.42-16.84,15,4.18,34.21,7.19,48.42,13.37,12.83,5.58,29.82,28.91,27.34,45.75-.67,4.51-1.21,9.39-3.85,13.65C145,150.66,131,168,123.08,173.53c-7.52,5.3-17,9-25.24,8.16-17.21,5.58-46.37-6.14-59.71-8.71-1.66-.32-4.23-2-5.71-2.44-13.33-4-27-20.64-29.19-31.4C2.51,135.6.31,128.61.07,124.43-.6,112.85,3.66,99.69,9.13,87.53Z"/><path class="cls-99" d="M9.49,90c14-30.45,42.17-24,68.61-16.72,14.91,4.13,33.94,7.16,48,13.32,12.62,5.52,30.07,29.7,27.76,46.3-.64,4.56-1.1,9.5-3.76,13.81-4.39,7.09-18.74,25.07-26.46,30.57s-17.24,9.09-25.47,8.09c-16.95,5.49-46.45-7.08-59.59-9.61-1.64-.31-4.25-2.06-5.7-2.5-13.13-4-27.11-21-29.28-31.61-.71-3.49-3-10.61-3.3-14.73C-.42,115.3,3.93,102.12,9.49,90Z"/><path class="cls-100" d="M10.09,92.67c14-29.86,42.76-23.77,68.8-16.61,14.81,4.07,33.67,7.13,47.63,13.28,12.41,5.47,30.33,30.49,28.18,46.85-.6,4.6-1,9.62-3.68,14-4.32,7-19,25.61-26.54,31.08s-17.43,9.23-25.71,8c-16.68,5.41-46.54-8-59.48-10.51-1.61-.31-4.26-2.13-5.69-2.56C20.69,172.26,6.39,154.8,4.25,144.36c-.7-3.44-3.16-10.69-3.44-14.75C0,117.9,4.43,104.7,10.09,92.67Z"/><path class="cls-101" d="M10.91,95.44c14.07-29.27,43.36-23.51,69-16.5,14.71,4,33.39,7.1,47.24,13.23,12.2,5.41,30.59,31.28,28.61,47.4-.57,4.65-.88,9.73-3.6,14.13-4.24,6.88-19.19,26.17-26.61,31.58-7.7,5.62-17.62,9.37-25.94,8-16.42,5.32-46.63-9-59.36-11.41-1.58-.3-4.27-2.2-5.68-2.63-12.72-3.86-27.35-21.76-29.45-32-.69-3.38-3.28-10.77-3.58-14.76C.64,120.62,5.16,107.4,10.91,95.44Z"/><path class="cls-102" d="M11.71,98.34C25.8,69.66,55.66,75.1,80.89,81.95c14.61,4,33.12,7.07,46.84,13.19,12,5.35,33.67,32.66,29,47.95a24.45,24.45,0,0,1-3.51,14.3c-4.17,6.77-19.42,26.72-26.69,32.08-7.77,5.72-17.82,9.51-26.18,7.9-16.15,5.24-46.72-9.9-59.24-12.31-1.56-.3-4.28-2.27-5.67-2.69C23,178.56,8,160.22,5.93,150.12c-.68-3.33-3.4-10.86-3.72-14.78C1.26,123.47,5.86,110.24,11.71,98.34Z"/><path class="cls-103" d="M13,101.36c14.1-28.09,44.54-23,69.38-16.28,14.51,3.91,32.85,7,46.45,13.14,11.78,5.29,34,33.46,29.45,48.5a24.15,24.15,0,0,1-3.43,14.46c-4.09,6.66-19.64,27.27-26.77,32.58-7.83,5.83-18,9.65-26.41,7.83-15.89,5.15-46.81-10.84-59.12-13.21-1.53-.3-4.3-2.34-5.66-2.75-12.31-3.73-27.59-22.51-29.63-32.45-.67-3.27-3.53-10.94-3.86-14.79C2.35,126.44,7,113.2,13,101.36Z"/><path class="cls-104" d="M14.51,104.81c9-29.57,45.13-22.71,69.57-16.17,14.41,3.86,32.58,7,46.05,13.1C141.71,107,164.5,136,160,150.78a23.87,23.87,0,0,1-3.35,14.62c-4,6.56-19.86,27.83-26.85,33.09-7.9,5.94-18.21,9.78-26.65,7.77-15.62,5.06-46.89-11.78-59-14.11-1.51-.29-4.31-2.41-5.65-2.81-12.1-3.67-27.71-22.89-29.71-32.66-.66-3.22-3.65-11-4-14.81C3.7,129.84,6.47,115.33,14.51,104.81Z"/><path class="cls-105" d="M16.22,108.07C25,79,61.95,85.62,86,92c14.32,3.8,32.31,7,45.66,13.05,11.37,5.17,34.71,35.06,30.3,49.59a23.62,23.62,0,0,1-3.27,14.78c-3.95,6.45-20.08,28.39-26.93,33.59-8,6-18.4,9.92-26.88,7.7-15.36,5-47-12.72-58.89-15-1.48-.29-4.32-2.48-5.64-2.88-11.9-3.61-27.84-23.26-29.8-32.87-.65-3.16-3.77-11.1-4.14-14.82C5.22,133,8,118.44,16.22,108.07Z"/><path class="cls-106" d="M18.12,111.42c8.67-28.57,46.32-22.19,69.95-16,14.22,3.75,32,6.94,45.27,13,11.16,5.11,35.05,35.86,30.72,50.14a23.39,23.39,0,0,1-3.18,14.95c-3.87,6.34-20.3,28.95-27,34.09-8,6.16-18.6,10.06-27.12,7.64C91.66,220.19,59.68,201.63,48,199.38c-1.46-.28-4.33-2.55-5.63-2.94-11.69-3.55-28-23.64-29.89-33.08-.64-3.11-3.9-11.18-4.28-14.84C6.94,136.35,9.72,121.66,18.12,111.42Z"/><path class="cls-107" d="M20.22,114.85C28.74,86.78,67.14,92.92,90.36,99c14.12,3.7,31.76,6.91,44.87,13,10.95,5.05,35.4,36.66,31.14,50.69a23.18,23.18,0,0,1-3.1,15.11c-3.8,6.23-20.52,29.51-27.09,34.59-8.09,6.27-18.79,10.2-27.35,7.57-14.83,4.81-47.16-14.6-58.65-16.82-1.43-.28-4.35-2.62-5.62-3-11.49-3.48-28.08-24-30-33.29-.62-3.05-4-11.26-4.41-14.85C8.85,139.72,11.64,124.94,20.22,114.85Z"/><path class="cls-108" d="M22.51,118.32C30.87,90.75,70,96.66,92.84,102.59c14,3.65,31.49,6.88,44.48,12.92,10.74,5,35.75,37.46,31.57,51.24a23,23,0,0,1-3,15.27c-3.73,6.12-20.74,30.08-27.16,35.1-8.16,6.38-19,10.34-27.59,7.51-14.56,4.72-47.25-15.54-58.54-17.72-1.41-.27-4.36-2.68-5.61-3.06-11.28-3.42-28.2-24.39-30.06-33.49-.61-3-4.15-11.35-4.55-14.87C11,143.14,13.75,128.27,22.51,118.32Z"/><path class="cls-109" d="M25,121.88c8.21-27.07,48.1-21.4,70.52-15.62,13.92,3.59,31.21,6.85,44.08,12.87,10.53,4.93,36.1,38.26,32,51.79a22.8,22.8,0,0,1-2.93,15.43c-3.66,6-21,30.64-27.24,35.6-8.23,6.49-19.18,10.47-27.82,7.44-14.3,4.64-47.33-16.48-58.42-18.62-1.38-.27-4.37-2.75-5.6-3.13-11.08-3.36-28.32-24.76-30.15-33.7-.6-2.94-4.28-11.43-4.69-14.89C13.25,146.64,16,131.69,25,121.88Z"/><path class="cls-110" d="M27.62,125.51c8.06-26.56,48.7-21.14,70.71-15.51,13.82,3.54,30.94,6.82,43.69,12.83,10.32,4.86,36.44,39.05,32.41,52.34a22.64,22.64,0,0,1-2.85,15.6c-3.58,5.91-21.17,31.21-27.32,36.1-8.3,6.6-19.37,10.61-28.06,7.38-14,4.55-47.42-17.42-58.3-19.52-1.35-.26-4.38-2.82-5.59-3.19-10.87-3.3-28.44-25.14-30.24-33.91-.59-2.89-4.41-11.51-4.83-14.9C15.71,150.22,18.51,135.19,27.62,125.51Z"/><path class="cls-111" d="M30.44,129.23c7.91-26.06,49.3-20.88,70.9-15.4,13.73,3.49,30.67,6.79,43.29,12.78,10.11,4.8,36.79,39.85,32.84,52.89a22.49,22.49,0,0,1-2.77,15.76c-3.51,5.8-21.39,31.78-27.4,36.6-8.36,6.71-19.57,10.75-28.29,7.31-13.77,4.46-47.51-18.36-58.18-20.42-1.33-.26-4.39-2.89-5.58-3.25C44.59,212.27,26.69,190,24.93,181.38c-.58-2.84-4.54-11.59-5-14.92C18.34,153.88,21.14,138.76,30.44,129.23Z"/><path class="cls-112" d="M33.82,133c7.75-25.56,49.89-20.63,71.09-15.29,13.63,3.43,30.39,6.76,42.9,12.74,9.91,4.74,37.14,40.65,33.26,53.43a22.36,22.36,0,0,1-2.69,15.92c-3.44,5.69-21.6,32.35-27.48,37.11-8.43,6.82-19.76,10.89-28.53,7.25-13.5,4.38-47.6-19.3-58.07-21.32-1.3-.25-4.41-3-5.57-3.31-10.46-3.17-28.68-25.89-30.41-34.33-.57-2.78-5.26-11.65-5.11-14.93C19.31,158.11,24.35,142.4,33.82,133Z"/><path class="cls-113" d="M36.94,136.73c7.6-25.06,50.49-20.37,71.28-15.18,13.53,3.38,30.12,6.73,42.51,12.69,9.7,4.67,37.48,41.45,33.68,54a22.23,22.23,0,0,1-2.6,16.09c-3.37,5.58-21.07,34-27.56,37.61-7.14,8.33-20,11-28.76,7.18-13.24,4.29-47.69-20.24-57.95-22.22-1.28-.25-4.42-3-5.56-3.38-10.26-3.11-28.8-26.26-30.5-34.54-.56-2.73-5.4-11.73-5.25-14.95C22.17,161.81,27.29,146,36.94,136.73Z"/><path class="cls-114" d="M40.21,140.63c7.45-24.56,51.08-20.12,71.47-15.07,13.43,3.33,29.84,6.69,42.11,12.65,9.49,4.6,37.83,42.25,34.11,54.53A22.12,22.12,0,0,1,185.38,209c-3.3,5.47-21.28,34.59-27.64,38.11-7.16,8.48-20.15,11.17-29,7.12C115.78,258.42,81,233,70.92,231.1c-1.25-.24-4.43-3.1-5.55-3.44-10.05-3-28.93-26.64-30.58-34.75-.55-2.67-5.53-11.81-5.38-15C25.18,165.68,30.38,149.74,40.21,140.63Z"/><path class="cls-115" d="M43.63,144.57c7.3-24.06,51.68-19.86,71.66-15,13.34,3.27,29.57,6.66,41.72,12.6,9.28,4.54,38.18,43.05,34.53,55.08a22,22,0,0,1-2.44,16.41c-3.23,5.36-21.49,35.16-27.71,38.61-7.17,8.63-20.34,11.3-29.23,7.05-12.71,4.12-47.86-22.12-57.71-24-1.23-.24-4.44-3.17-5.53-3.5-9.85-3-29-27-30.67-35-.54-2.62-5.67-11.89-5.52-15C28.34,169.6,33.62,153.54,43.63,144.57Z"/><path class="cls-116" d="M47.18,148.56C54.33,125,99.46,129,119,133.72c13.24,3.22,29.29,6.63,41.32,12.56,9.08,4.47,38.52,43.85,35,55.63A21.93,21.93,0,0,1,193,218.48c-3.16,5.25-21.7,35.74-27.79,39.11-7.19,8.78-20.54,11.44-29.47,7-12.44,4-47.95-23.06-57.6-24.92-1.2-.23-4.46-3.24-5.52-3.57-9.64-2.92-29.17-27.39-30.76-35.17-.52-2.56-5.8-12-5.66-15C31.64,173.56,37,157.39,47.18,148.56Z"/><path class="cls-117" d="M50.86,152.59c7-23.06,52.87-19.35,72-14.73,13.14,3.17,29,6.6,40.93,12.51,8.87,4.4,38.87,44.65,35.37,56.18a21.85,21.85,0,0,1-2.27,16.74c-3.09,5.14-21.91,36.31-27.87,39.62-7.2,8.92-20.73,11.58-29.7,6.92-12.18,3.95-48-24-57.48-25.82-1.18-.23-4.47-3.31-5.51-3.63-9.43-2.86-29.29-27.76-30.85-35.38-.51-2.51-5.94-12-5.8-15C35.07,177.57,40.5,161.28,50.86,152.59Z"/><path class="cls-118" d="M54.68,156.66c6.84-22.55,53.47-19.1,72.24-14.62,13,3.11,28.74,6.56,40.54,12.47,8.66,4.34,39.22,45.45,35.8,56.73a21.78,21.78,0,0,1-2.19,16.9c-3,5-22.12,36.89-27.95,40.12-7.22,9.07-20.93,11.72-29.93,6.86C131.26,279,95,250.16,85.81,248.38c-1.15-.22-4.48-3.38-5.5-3.69-9.23-2.8-29.41-28.14-30.93-35.59-.5-2.45-6.07-12.13-5.94-15C38.62,181.61,44.13,165.21,54.68,156.66Z"/><path class="cls-119" d="M58.61,160.75c6.69-22.05,54.07-18.85,72.43-14.51,13,3.06,28.46,6.53,40.14,12.42,8.46,4.27,39.57,46.25,36.22,57.27a21.72,21.72,0,0,1-2.1,17.06c-2.95,4.92-22.32,37.46-28,40.62-7.24,9.22-21.12,11.86-30.17,6.79-11.65,3.78-48.21-25.88-57.25-27.62-1.12-.22-4.49-3.45-5.49-3.75-9-2.74-29.53-28.51-31-35.8-.49-2.4-6.21-12.21-6.08-15C42.3,185.67,47.89,169.16,58.61,160.75Z"/><path class="cls-120" d="M62.65,164.86c6.54-21.55,54.67-18.6,72.62-14.4,12.85,3,28.18,6.5,39.75,12.38,8.25,4.2,39.91,47,36.64,57.82a21.66,21.66,0,0,1-2,17.22c-2.88,4.81-22.53,38-28.11,41.12-7.25,9.37-21.31,12-30.4,6.73-11.39,3.69-48.3-26.82-57.13-28.52-1.1-.21-4.51-3.52-5.48-3.82-8.82-2.68-29.65-28.89-31.11-36-.48-2.34-6.35-12.29-6.22-15.06C46.09,189.76,51.76,173.13,62.65,164.86Z"/><path class="cls-121" d="M66.81,169c6.39-21.05,55.27-18.36,72.81-14.29,12.76,3,27.91,6.47,39.35,12.33,8,4.12,40.26,47.85,37.07,58.37a21.61,21.61,0,0,1-1.94,17.39c-2.81,4.7-22.74,38.61-28.18,41.63-7.27,9.52-21.51,12.13-30.64,6.66-11.12,3.61-48.39-27.76-57-29.42-1.07-.21-4.52-3.59-5.47-3.88-8.61-2.61-29.77-29.26-31.2-36.22-.47-2.29-6.48-12.37-6.36-15.07C50,193.86,55.73,177.11,66.81,169Z"/><path class="cls-122" d="M71.06,173.13c6.23-20.55,55.87-18.11,73-14.18,12.66,2.9,27.63,6.43,39,12.29,7.84,4.05,40.61,48.65,37.49,58.92a21.57,21.57,0,0,1-1.86,17.55c-2.74,4.59-22.95,39.18-28.26,42.13-7.28,9.67-21.7,12.27-30.87,6.6-10.86,3.52-48.48-28.7-56.89-30.32-1-.2-4.53-3.66-5.46-3.94-8.41-2.55-29.89-29.64-31.28-36.43-.46-2.24-6.62-12.45-6.49-15.09C54,198,59.81,181.11,71.06,173.13Z"/><path class="cls-123" d="M75.41,177.27c6.08-20,56.47-17.87,73.19-14.07,12.57,2.85,27.35,6.4,38.56,12.24,7.64,4,41,49.44,37.91,59.47a21.54,21.54,0,0,1-1.77,17.71c-2.67,4.48-23.16,39.76-28.34,42.63-7.3,9.82-21.9,12.41-31.11,6.53-10.59,3.43-48.56-29.64-56.78-31.22-1-.2-4.54-3.73-5.45-4-8.2-2.49-30-30-31.37-36.63-.45-2.18-6.75-12.53-6.63-15.1C58.07,202.09,64,185.11,75.41,177.27Z"/><path class="cls-124" d="M79.85,181.41c5.93-19.55,57.07-17.62,73.38-14,12.47,2.8,27.07,6.37,38.17,12.2,7.43,3.91,41.3,50.24,38.34,60A21.51,21.51,0,0,1,228,257.54c-2.6,4.37-23.36,40.33-28.42,43.13-7.32,10-22.09,12.55-31.34,6.47C158,310.49,119.63,276.55,111.62,275c-1-.19-4.56-3.8-5.44-4.07-8-2.43-30.14-30.39-31.46-36.84C74.29,232,67.84,221.5,68,219,62.26,206.21,68.24,189.11,79.85,181.41Z"/><path class="cls-125" d="M84.38,185.54c5.78-19,57.67-17.38,73.57-13.85,12.38,2.75,26.79,6.33,37.78,12.15,7.23,3.83,41.65,51,38.76,60.57a21.48,21.48,0,0,1-1.61,18c-2.53,4.26-23.57,40.91-28.5,43.64-7.33,10.12-22.29,12.68-31.58,6.4-10.06,3.26-48.74-31.52-56.54-33-1-.19-4.57-3.87-5.43-4.13C103,273,80.56,244.57,79.28,238.28c-.42-2.07-7-12.69-6.91-15.13C66.52,210.31,72.59,193.1,84.38,185.54Z"/><path class="cls-126" d="M89,189.66c5.63-18.55,58.27-17.14,73.76-13.74,12.28,2.69,26.51,6.3,37.38,12.11,7,3.76,42,51.84,39.18,61.12a21.47,21.47,0,0,1-1.52,18.2c-2.46,4.15-23.78,41.48-28.58,44.14-7.35,10.27-22.48,12.82-31.81,6.34-9.8,3.18-48.83-32.46-56.42-33.93-.95-.18-4.58-3.94-5.42-4.19-7.59-2.3-30.38-31.14-31.63-37.26-.41-2-7.16-12.77-7-15.15C70.87,214.41,77,197.08,89,189.66Z"/><path class="cls-127" d="M93.64,193.75c5.47-18,58.87-16.9,74-13.63,12.19,2.64,26.23,6.26,37,12.06,6.82,3.68,42.34,52.64,39.6,61.66a21.46,21.46,0,0,1-1.44,18.36c-2.39,4-24,42.05-28.66,44.64-7.36,10.42-22.67,13-32,6.27-9.53,3.09-48.92-33.4-56.31-34.83-.92-.18-4.59-4-5.41-4.25-7.38-2.24-30.5-31.51-31.72-37.47-.4-2-7.3-12.85-7.19-15.17C75.28,218.48,81.5,201,93.64,193.75Z"/><path class="cls-128" d="M98.38,197.82c5.32-17.54,59.47-16.66,74.14-13.52,12.09,2.59,26,6.23,36.59,12,6.62,3.6,42.69,53.44,40,62.21a21.45,21.45,0,0,1-1.36,18.53c-2.32,3.93-24.2,42.63-28.73,45.14-7.38,10.57-22.87,13.1-32.28,6.21-9.27,3-49-34.34-56.19-35.73-.89-.17-4.61-4.08-5.4-4.32-7.18-2.18-30.62-31.89-31.81-37.68-.39-1.91-7.43-12.93-7.33-15.18C79.76,222.52,86.06,205,98.38,197.82Z"/><path class="cls-129" d="M103.17,201.86c5.17-17,60.07-16.42,74.33-13.41,12,2.54,25.67,6.19,36.2,12,6.42,3.52,43,54.24,40.45,62.76a21.45,21.45,0,0,1-1.27,18.69c-2.25,3.82-24.41,43.2-28.81,45.64-7.4,10.72-23.06,13.24-32.52,6.14-9,2.92-49.09-35.28-56.07-36.63-.87-.17-4.62-4.15-5.39-4.38-7-2.12-30.74-32.26-31.89-37.89-.38-1.85-7.57-13-7.47-15.2C84.29,226.54,90.67,208.87,103.17,201.86Z"/><path class="cls-130" d="M108,205.87c5-16.54,60.68-16.19,74.52-13.3,11.9,2.48,25.39,6.16,35.8,11.93,6.21,3.44,43.38,55,40.87,63.31A21.45,21.45,0,0,1,258,286.66c-2.19,3.7-24.61,43.78-28.89,46.15-7.41,10.87-23.26,13.37-32.75,6.08-8.74,2.83-49.18-36.22-56-37.53-.84-.16-4.63-4.22-5.38-4.44-6.77-2.05-30.86-32.64-32-38.1-.37-1.8-7.7-13.09-7.6-15.21C88.88,230.52,95.34,212.73,108,205.87Z"/><path class="cls-131" d="M112.9,209.83c4.87-16,61.28-16,74.71-13.19,11.81,2.43,25.11,6.12,35.41,11.88,6,3.36,43.73,55.84,41.3,63.86a21.46,21.46,0,0,1-1.11,19c-2.12,3.59-24.82,44.35-29,46.65-7.43,11-23.45,13.51-33,6-8.47,2.75-49.27-37.16-55.84-38.43-.82-.16-4.64-4.28-5.37-4.51-6.56-2-31-33-32.07-38.31-.36-1.75-7.84-13.17-7.74-15.23C93.51,234.45,100,216.55,112.9,209.83Z"/><path class="cls-132" d="M117.83,213.74c4.71-15.54,61.88-15.72,74.9-13.08,11.71,2.38,24.83,6.09,35,11.84,5.81,3.28,44.08,56.64,41.72,64.41a21.47,21.47,0,0,1-1,19.18c-2,3.48-25,44.93-29,47.15-7.44,11.17-23.65,13.65-33.22,5.95-8.21,2.66-49.36-38.1-55.72-39.33-.79-.15-4.66-4.35-5.36-4.57-6.36-1.93-31.11-33.39-32.16-38.52-.35-1.69-8-13.25-7.88-15.24C98.18,238.34,104.8,220.31,117.83,213.74Z"/><path class="cls-133" d="M122.8,217.59c4.56-15,62.49-15.49,75.09-13,11.62,2.33,24.55,6.05,34.62,11.79,5.61,3.2,44.42,57.44,42.14,65a21.49,21.49,0,0,1-.94,19.34c-2,3.37-25.24,45.5-29.13,47.65-7.46,11.32-23.84,13.79-33.46,5.88-7.94,2.58-49.44-39-55.6-40.23-.77-.15-4.67-4.42-5.35-4.63-6.15-1.87-31.23-33.76-32.24-38.73-.33-1.64-8.11-13.33-8-15.26C102.89,242.17,109.58,224,122.8,217.59Z"/><path class="cls-134" d="M127.79,221.38c4.41-14.54,63.09-15.26,75.29-12.86,11.53,2.28,24.26,6,34.23,11.75,5.41,3.11,44.77,58.24,42.57,65.5a21.5,21.5,0,0,1-.86,19.5c-1.91,3.26-25.45,46.07-29.21,48.16-7.48,11.47-24,13.93-33.69,5.82-7.68,2.49-49.53-40-55.49-41.13-.74-.14-4.68-4.49-5.34-4.69-5.95-1.8-31.35-34.13-32.33-38.94-.32-1.58-8.25-13.41-8.16-15.27C107.62,245.93,114.39,227.68,127.79,221.38Z"/><path class="cls-135" d="M132.8,225.11c4.26-14,63.69-15,75.48-12.74,11.44,2.22,24,6,33.83,11.7,5.21,3,45.12,59,43,66.05a21.53,21.53,0,0,1-.78,19.66c-1.85,3.15-25.65,46.65-29.28,48.66-7.49,11.62-24.23,14.06-33.93,5.75-7.41,2.4-49.62-40.92-55.37-42-.72-.14-4.69-4.56-5.33-4.76-5.74-1.74-31.47-34.51-32.42-39.15-.31-1.53-8.38-13.49-8.3-15.29C112.38,249.64,119.23,231.27,132.8,225.11Z"/><path class="cls-136" d="M137.82,228.76c4.11-13.53,64.3-14.81,75.67-12.63s23.69,5.94,33.44,11.66c5,2.94,45.46,59.84,43.41,66.6a21.55,21.55,0,0,1-.69,19.83c-1.78,3-25.86,47.22-29.36,49.16-7.51,11.77-24.42,14.2-34.16,5.69-7.15,2.32-49.71-41.86-55.25-42.93-.69-.13-4.71-4.63-5.32-4.82C160,319.64,134,286.43,133,282c-.3-1.47-8.52-13.57-8.44-15.31C117.15,253.26,124.07,234.78,137.82,228.76Z"/><path class="cls-137" d="M142.85,232.34c4-13,64.9-14.59,75.86-12.52,11.25,2.12,23.41,5.91,33,11.61,4.82,2.85,45.81,60.63,43.83,67.15a21.58,21.58,0,0,1-.61,20c-1.71,2.92-26.07,47.8-29.44,49.66-7.52,11.92-24.62,14.34-34.4,5.62-6.88,2.23-49.8-42.8-55.13-43.83-.66-.13-4.72-4.7-5.31-4.88-5.33-1.62-31.71-35.26-32.59-39.57-.29-1.42-8.65-13.65-8.57-15.32C121.92,256.82,128.93,238.21,142.85,232.34Z"/><path class="cls-138" d="M147.89,235.83c3.8-12.53,65.51-14.37,76-12.41,11.16,2.07,23.12,5.87,32.65,11.57,4.62,2.76,46.16,61.43,44.26,67.7a21.61,21.61,0,0,1-.53,20.15C298.67,325.65,274,371.21,270.8,373c-7.54,12.07-24.81,14.48-34.63,5.56-6.62,2.15-49.88-43.74-55-44.73-.64-.12-4.73-4.77-5.3-4.94-5.13-1.56-31.83-35.63-32.68-39.77-.28-1.36-8.79-13.73-8.71-15.34C126.7,260.28,133.79,241.56,147.89,235.83Z"/><path class="cls-139" d="M152.92,239.23c3.65-12,66.12-14.15,76.24-12.3,11.07,2,22.84,5.83,32.26,11.52,4.42,2.67,46.5,62.23,44.68,68.25a21.65,21.65,0,0,1-.44,20.32c-1.58,2.7-26.49,48.94-29.6,50.67-7.56,12.22-25,14.62-34.87,5.5-6.35,2.06-50-44.68-54.9-45.63-.61-.12-4.74-4.84-5.29-5-4.92-1.49-32-36-32.77-40-.27-1.31-8.92-13.81-8.85-15.35C131.48,263.66,138.64,244.82,152.92,239.23Z"/><path class="cls-140" d="M157.94,242.53c3.5-11.53,66.72-13.93,76.43-12.19,11,2,22.55,5.79,31.86,11.48,4.23,2.58,46.85,63,45.1,68.8a21.69,21.69,0,0,1-.36,20.48c-1.51,2.59-26.7,49.52-29.68,51.17-7.57,12.37-25.2,14.75-35.1,5.43-6.09,2-50.06-45.62-54.78-46.53-.59-.11-4.76-4.91-5.28-5.07-4.72-1.43-32.07-36.38-32.85-40.19-.26-1.25-9.06-13.89-9-15.37C136.24,266.93,143.48,248,157.94,242.53Z"/><path class="cls-141" d="M162.95,245.74c3.35-11,67.33-13.71,76.62-12.08,10.88,1.91,23.4,4.24,31.47,11.43,4.4,1.75,47.2,63.83,45.53,69.34a21.73,21.73,0,0,1-.28,20.64c-1.44,2.48-26.9,50.09-29.76,51.67-7.59,12.52-25.39,14.89-35.34,5.37-5.82,1.89-50.15-46.56-54.66-47.43-.56-.11-4.77-5-5.27-5.13-4.51-1.37-32.2-36.76-32.94-40.4-.25-1.2-9.2-14-9.13-15.38C141,270.11,148.31,251,162.95,245.74Z"/><path class="cls-142" d="M167.93,248.83c3.19-10.53,67.94-13.5,76.81-12,10.79,1.86,23.14,4.18,31.07,11.39,4.2,1.67,47.55,64.63,45.95,69.89a21.77,21.77,0,0,1-.2,20.8c-1.38,2.37-27.11,50.67-29.83,52.17-7.6,12.67-25.59,15-35.57,5.3-5.56,1.8-50.24-47.5-54.55-48.33-.54-.1-4.78-5-5.26-5.19-4.31-1.31-32.32-37.13-33-40.61-.23-1.15-9.33-14-9.27-15.4C145.72,273.18,153.12,254,167.93,248.83Z"/><path class="cls-143" d="M172.89,251.81c3-10,68.55-13.29,77-11.86,10.7,1.81,22.88,4.12,30.68,11.34,4,1.59,47.89,65.43,46.37,70.44a21.82,21.82,0,0,1-.11,21c-1.31,2.25-27.32,51.24-29.91,52.68-7.62,12.82-25.78,15.17-35.81,5.24-5.3,1.72-50.32-48.44-54.43-49.23-.51-.1-4.79-5.12-5.25-5.26-4.1-1.24-32.44-37.51-33.11-40.82-.22-1.09-9.47-14.13-9.41-15.41C150.41,276.13,157.89,256.84,172.89,251.81Z"/><path class="cls-144" d="M177.8,254.66c2.89-9.52,69.16-13.08,77.19-11.75,10.61,1.76,22.63,4.06,30.29,11.3,3.8,1.51,48.24,66.23,46.8,71a21.87,21.87,0,0,1,0,21.13c-1.24,2.14-27.53,51.81-30,53.18-7.64,13-26,15.31-36,5.17-5,1.63-50.41-49.38-54.31-50.13-.49-.09-4.81-5.19-5.24-5.32-3.9-1.18-32.56-37.88-33.2-41-.21-1-9.6-14.21-9.55-15.43C155.08,279,162.63,259.55,177.8,254.66Z"/><path class="cls-145" d="M182.68,257.39c2.74-9,69.77-12.87,77.38-11.64,10.52,1.71,22.37,4,29.89,11.25,3.6,1.43,48.59,67,47.22,71.54a21.92,21.92,0,0,1,.05,21.29c-1.18,2-27.74,52.39-30.07,53.68-7.65,13.12-26.17,15.44-36.28,5.11-4.77,1.55-50.5-50.32-54.19-51-.46-.09-4.82-5.26-5.23-5.38-3.69-1.12-32.68-38.26-33.29-41.24-.2-1-9.74-14.29-9.68-15.45C159.7,281.67,167.33,262.14,182.68,257.39Z"/><path class="cls-146" d="M187.51,260c2.58-8.52,70.38-12.67,77.57-11.53,10.43,1.66,22.11,3.95,29.5,11.21,3.4,1.35,48.93,67.83,47.64,72.09a22,22,0,0,1,.14,21.45c-1.11,1.92-27.94,53-30.15,54.18-7.67,13.27-26.36,15.58-36.51,5-4.5,1.46-50.59-51.26-54.08-51.94-.43-.08-4.83-5.33-5.22-5.45-3.49-1.06-32.8-38.63-33.38-41.45-.19-.93-9.87-14.37-9.82-15.46C164.27,284.24,172,264.6,187.51,260Z"/><path class="cls-147" d="M192.29,262.45c2.43-8,71-12.47,77.76-11.42,10.35,1.6,21.86,3.89,29.1,11.16,3.2,1.27,49.28,68.63,48.06,72.64,3.66,6.55,4.12,14.89.22,21.62-1,1.8-28.15,53.54-30.23,54.69-7.68,13.42-26.56,15.72-36.74,5-4.24,1.37-50.68-52.2-54-52.84-.41-.08-4.84-5.4-5.21-5.51-3.28-1-32.92-39-33.46-41.66-.18-.87-10-14.45-10-15.48C168.79,286.67,176.58,266.92,192.29,262.45Z"/><path class="cls-148" d="M197,264.76c2.28-7.52,71.6-12.27,78-11.31,10.26,1.55,21.6,3.83,28.71,11.12,3,1.19,49.63,69.43,48.49,73.19,3.73,6.59,4.23,15,.3,21.78-1,1.69-28.36,54.11-30.31,55.19-7.7,13.57-26.75,15.86-37,4.91-4,1.29-50.76-53.14-53.84-53.74-.38-.07-4.86-5.47-5.2-5.57-3.08-.93-33-39.38-33.55-41.87-.17-.82-10.14-14.53-10.1-15.49C173.25,289,181.12,269.09,197,264.76Z"/><path class="cls-149" d="M201.66,267c2.13-7,72.21-10.3,78.15-11.2,10.17-1.53,21.35,3.77,28.31,11.07,2.8,1.11,50,70.23,48.91,73.73,3.81,6.63,4.34,15.11.38,21.94-.91,1.58-28.57,54.69-30.38,55.69-7.71,13.72-26.95,16-37.21,4.85-3.71,1.2-50.85-54.08-53.72-54.64-.36-.07-4.87-5.54-5.19-5.63-2.87-.87-33.16-39.76-33.64-42.08C197.11,320,187,306.14,187,305.24,177.64,291.18,185.59,271.19,201.66,267Z"/><path class="cls-150" d="M206.23,269c2-6.52,72.83-10.2,78.34-11.09,10.05-1.63,21.09,3.72,27.92,11,2.6,1,50.32,71,49.33,74.28,3.88,6.67,4.44,15.23.47,22.1-.85,1.47-28.78,55.26-30.46,56.19-7.73,13.87-27.14,16.13-37.45,4.78-3.44,1.12-50.94-55-53.61-55.54-.33-.06-4.88-5.61-5.18-5.7-2.67-.81-33.29-40.13-33.73-42.29-.14-.71-10.42-14.69-10.38-15.52C182,293.18,190,273.08,206.23,269Z"/><path class="cls-151" d="M210.73,270.89c1.82-6,73.46-10.1,78.53-11,9.94-1.72,20.83,3.66,27.53,11,2.4,1,50.67,71.82,49.76,74.83,4,6.71,4.55,15.34.55,22.27-.78,1.35-29,55.83-30.54,56.7-7.75,14-27.34,16.27-37.68,4.72-3.18,1-51-56-53.49-56.44-.31-.06-4.89-5.68-5.17-5.76-2.46-.75-33.41-40.51-33.81-42.5-.13-.65-10.55-14.77-10.52-15.54C186.21,295,194.31,274.8,210.73,270.89Z"/><path class="cls-152" d="M215.15,272.59c1.67-5.51,74.08-10,78.72-10.87,9.83-1.82,20.58,3.6,27.13,10.94,2.2.87,51,72.62,50.18,75.38,4,6.75,4.66,15.45.63,22.43-.72,1.24-29.19,56.41-30.62,57.2-7.76,14.17-27.53,16.41-37.92,4.65-2.91.94-51.11-56.9-53.37-57.34-.28-.05-4.91-5.75-5.16-5.82-2.26-.68-33.53-40.88-33.9-42.71-.12-.6-10.69-14.85-10.65-15.56C190.37,296.69,198.55,276.35,215.15,272.59Z"/><path class="cls-153" d="M219.47,274.1c1.52-5,74.7-9.92,78.91-10.75,9.72-1.92,20.32,3.54,26.74,10.89,2,.79,51.36,73.42,50.6,75.93,4.11,6.8,4.77,15.56.72,22.59-.65,1.13-29.4,57-30.7,57.7C338,444.78,318,447,307.58,435c-2.65.86-51.2-57.84-53.26-58.24-.26,0-4.92-5.82-5.15-5.88-2.05-.62-33.65-41.26-34-42.91-.11-.55-10.82-14.93-10.79-15.57C194.43,298.17,202.7,277.72,219.47,274.1Z"/><path class="cls-154" d="M223.7,275.43c1.37-4.51,75.32-9.85,79.1-10.64,9.61-2,20.06,3.48,26.34,10.85,1.8.71,51.71,74.22,51,76.48,4.18,6.84,4.88,15.67.8,22.76-.59,1-29.61,57.56-30.78,58.2-7.79,14.47-27.92,16.69-38.39,4.52-2.38.77-51.29-58.78-53.14-59.14-.23,0-4.93-5.88-5.13-5.95-1.85-.56-33.77-41.63-34.07-43.12-.1-.49-11-15-10.93-15.59C198.4,299.48,206.74,278.91,223.7,275.43Z"/><path class="cls-155" d="M227.82,276.57c1.22-4,75.94-9.79,79.29-10.53,9.49-2.11,19.81,3.43,25.95,10.8,1.6.64,52.06,75,51.45,77,4.25,6.88,5,15.79.88,22.92-.52.9-29.82,58.13-30.85,58.71-7.81,14.62-28.11,16.82-38.62,4.46-2.12.69-51.38-59.72-53-60-.2,0-4.94-6-5.12-6-1.64-.5-33.89-42-34.16-43.33-.09-.44-11.09-15.09-11.07-15.6C202.27,300.59,210.69,279.91,227.82,276.57Z"/><path class="cls-156" d="M231.84,277.3c1.06-3.51,76.61-11.29,79.48-10.42,9.62-.54,19.55,3.37,25.56,10.76,1.4.56,52.4,75.82,51.87,77.57,4.33,6.92,5.1,15.9,1,23.08-.45.79-30,58.7-30.93,59.21-7.83,14.77-28.31,17-38.86,4.39-1.85.6-51.47-60.66-52.9-60.94-.18,0-5-6-5.11-6.07-1.44-.44-34-42.38-34.25-43.54-.08-.38-11.23-15.17-11.21-15.62C206,301.3,214.53,280.5,231.84,277.3Z"/><path class="cls-157" d="M235.73,278c.91-3,77.21-11.06,79.67-10.31,9.52-.62,19.29,3.31,25.16,10.71,1.2.48,52.75,76.62,52.29,78.12,4.4,7,5.21,16,1,23.24-.39.68-30.23,59.28-31,59.71-7.84,14.92-28.5,17.1-39.09,4.33-1.59.52-51.55-61.6-52.79-61.84-.15,0-5-6.09-5.1-6.13-1.23-.37-34.13-42.76-34.34-43.75-.07-.33-11.37-15.25-11.35-15.63C209.67,302,218.25,281.08,235.73,278Z"/><path class="cls-158" d="M239.51,278.55c.76-2.51,77.81-10.82,79.86-10.2,9.43-.69,19,3.25,24.77,10.67,1,.4,53.1,77.42,52.72,78.67,4.48,7,5.31,16.12,1.13,23.41-.32.57-30.44,59.85-31.09,60.21-7.86,15.07-28.69,17.24-39.33,4.26-1.32.43-51.64-62.54-52.67-62.74-.13,0-5-6.16-5.09-6.2-1-.31-34.25-43.13-34.42-44-.06-.27-11.5-15.33-11.49-15.65C213.19,302.5,221.84,281.46,239.51,278.55Z"/><path class="cls-159" d="M243.16,278.86c.61-2,78.41-10.59,80.05-10.09a27.84,27.84,0,0,1,24.37,10.62c.8.32,53.44,78.22,53.14,79.22,4.55,7,5.42,16.23,1.21,23.57-.26.45-30.65,60.43-31.17,60.71-7.87,15.22-28.89,17.38-39.56,4.2-1.06.34-51.73-63.48-52.55-63.64-.1,0-5-6.23-5.08-6.26-.82-.25-34.37-43.51-34.51-44.17,0-.22-11.64-15.41-11.63-15.66C216.58,302.78,225.31,281.63,243.16,278.86Z"/><path class="cls-160" d="M246.67,278.95c.46-1.5,79-10.35,80.24-10a26.84,26.84,0,0,1,24,10.58c.6.24,53.79,79,53.56,79.77,4.63,7.08,5.53,16.35,1.3,23.73-.19.34-30.86,61-31.25,61.22-7.89,15.37-29.08,17.51-39.8,4.13-.79.26-51.82-64.42-52.43-64.54-.08,0-5-6.3-5.07-6.32-.62-.19-34.5-43.88-34.6-44.38,0-.16-11.77-15.49-11.76-15.68C219.84,302.85,228.65,281.58,246.67,278.95Z"/><path class="cls-161" d="M250,278.81c.3-1,79.61-10.12,80.43-9.87a25.88,25.88,0,0,1,23.58,10.53c.4.16,54.14,79.82,54,80.32,4.7,7.12,5.64,16.46,1.38,23.89-.13.23-31.07,61.58-31.33,61.72a23.94,23.94,0,0,1-40,4.07c-.53.17-51.91-65.36-52.32-65.44-.05,0-5-6.37-5.06-6.39-.41-.12-34.62-44.26-34.68-44.59,0-.11-11.91-15.57-11.9-15.7A24.21,24.21,0,0,1,250,278.81Z"/><path class="cls-162" d="M253.27,278.44c.15-.5,80.21-9.88,80.62-9.76a25,25,0,0,1,23.19,10.49c.2.08,54.49,80.62,54.41,80.87,4.78,7.16,5.75,16.57,1.46,24.06-.06.11-31.27,62.15-31.4,62.22a24,24,0,0,1-40.27,4c-.26.09-52-66.3-52.2-66.34,0,0-5-6.44-5.05-6.45-.21-.06-34.74-44.63-34.77-44.8s-12-15.65-12-15.71A24.13,24.13,0,0,1,253.27,278.44Z"/><path class="cls-163" d="M344.43,450.93l-52.08-67.24-52.08-67.24a24,24,0,0,1,16.16-38.6l80.81-9.65A24,24,0,0,1,360,278.63L414.87,360a24,24,0,0,1,1.55,24.22L384.93,447A24,24,0,0,1,344.43,450.93Z"/><path class="cls-164" d="M259.18,278.38c0-.36,80.2-10,80.64-9.9a24.3,24.3,0,0,1,22.83,10.45c.25.14,54.55,80.72,54.64,80.88,4.21,7.54,5.42,16.37,1.58,24.09,0,.15-31.12,62.25-31.21,62.42-8.5,15.82-29.61,18.34-40.86,4.2-.42-.24-103.48-133.36-103.54-133.69C231.93,302.14,240.85,280.68,259.18,278.38Z"/><path class="cls-165" d="M262,278.73c0-.72,79.58-10.4,80.46-10.15A24.56,24.56,0,0,1,365.34,279c.51.29,54.28,80,54.46,80.34,4.18,7.5,5.39,16.28,1.61,24,0,.3-30.76,61.78-30.93,62.11-8.63,16-29.55,18.75-41.22,4.47-.84-.48-102.8-132.22-102.92-132.88C235.12,302.42,243.93,281.12,262,278.73Z"/><path class="cls-166" d="M265.06,278.93c0-1.07,79-10.78,80.28-10.39A24.83,24.83,0,0,1,368.23,279c.76.43,54,79.33,54.27,79.81,4.15,7.46,5.36,16.19,1.64,23.83.06.45-30.39,61.31-30.66,61.81-8.77,16.26-29.49,19.16-41.59,4.74-1.26-.72-102.11-131.09-102.3-132.08C238.5,302.56,247.19,281.41,265.06,278.93Z"/><path class="cls-167" d="M268.26,279.47c0-1.43,78.34-11.16,80.1-10.64a25.1,25.1,0,0,1,22.92,10.47c1,.58,53.72,78.63,54.08,79.27,4.13,7.43,5.34,16.1,1.66,23.71.08.6-30,60.84-30.39,61.5-8.9,16.48-27.14,17.23-41.95,5-1.49-1.23-101.43-130-101.68-131.28C242.05,303,250.62,282,268.26,279.47Z"/><path class="cls-168" d="M271.64,279.37c0-1.79,77.73-11.54,79.92-10.89a25.38,25.38,0,0,1,23,10.47c1.26.72,53.44,77.93,53.89,78.74,4.1,7.39,5.31,16,1.69,23.58.09.75-29.67,60.37-30.11,61.2-9,16.7-27.13,17.66-42.31,5.27-1.87-1.53-100.74-128.82-101.06-130.48C245.78,302.87,254.23,282,271.64,279.37Z"/><path class="cls-169" d="M275.18,279.14c0-2.15,77.11-11.91,79.74-11.14a25.66,25.66,0,0,1,23,10.48c1.52.87,53.17,77.23,53.7,78.2,4.07,7.35,5.29,15.92,1.72,23.45.11.9-29.3,59.9-29.84,60.89-9.17,16.93-27.12,18.08-42.67,5.53-2.26-1.82-100.06-127.68-100.44-129.67C249.67,302.57,258,281.89,275.18,279.14Z"/><path class="cls-170" d="M278.87,278.77c0-2.5,76.49-12.29,79.56-11.39a26,26,0,0,1,23,10.49c1.77,1,52.89,76.54,53.51,77.67,4,7.31,5.26,15.83,1.75,23.32.13,1-28.94,59.44-29.56,60.59-9.3,17.15-27.11,18.51-43,5.8-2.64-2.11-99.37-126.55-99.82-128.87C253.71,302.13,261.92,281.61,278.87,278.77Z"/><path class="cls-171" d="M282.72,278.27c0-2.86,75.87-12.67,79.38-11.64a26.25,26.25,0,0,1,23.05,10.49c2,1.16,52.61,75.84,53.33,77.13,4,7.27,5.24,15.73,1.78,23.19.15,1.2-28.57,59-29.29,60.28-9.43,17.37-27.1,18.93-43.39,6.07-3-2.4-98.69-125.41-99.2-128.07C257.91,301.56,266,281.19,282.72,278.27Z"/><path class="cls-172" d="M286.72,277.65c0-3.22,75.25-13,79.2-11.89A26.55,26.55,0,0,1,389,276.26c2.28,1.3,52.34,75.14,53.14,76.59,4,7.23,5.21,15.64,1.81,23.06.17,1.35-28.21,58.5-29,60-9.57,17.59-27.09,19.36-43.75,6.33-3.43-2.68-98-124.28-98.58-127.27C262.26,300.87,270.22,280.66,286.72,277.65Z"/><path class="cls-173" d="M290.85,276.91c0-3.58,74.64-13.42,79-12.13A26.86,26.86,0,0,1,393,275.28c2.53,1.45,52.06,74.45,52.95,76.06,4,7.2,5.18,15.55,1.84,22.94.19,1.5-27.84,58-28.74,59.67-9.7,17.81-27.08,19.79-44.12,6.6-3.82-3-97.32-123.14-98-126.47C266.74,300.06,274.59,280,290.85,276.91Z"/><path class="cls-174" d="M295.12,276c0-3.94,74-13.8,78.85-12.38a27.18,27.18,0,0,1,23.15,10.51c2.78,1.59,51.78,73.75,52.76,75.52,3.94,7.16,5.16,15.46,1.87,22.81.21,1.65-27.48,57.56-28.47,59.37-9.84,18-27.06,20.22-44.48,6.87-4.22-3.24-96.64-122-97.34-125.66C271.36,299.14,279.09,279.24,295.12,276Z"/><path class="cls-175" d="M299.52,275.21c0-4.29,73.33-11.35,78.67-12.63,8.63-2.07,17.63,3.42,23.18,10.52,3,1.73,51.51,73.05,52.57,75,3.91,7.12,5.13,15.37,1.9,22.68.23,1.8-27.11,57.09-28.19,59.06-10,18.26-27,20.65-44.84,7.13-4.62-3.51-96-120.87-96.72-124.86C276.1,298.23,283.71,278.49,299.52,275.21Z"/><path class="cls-176" d="M304,274.09c0-4.65,72.7-11.53,78.49-12.88,8.64-2,17.62,3.46,23.21,10.52,3.29,1.88,51.23,72.35,52.38,74.45,3.88,7.08,5.11,15.28,1.93,22.55.24,1.95-26.75,56.62-27.92,58.76-10.1,18.48-27,21.09-45.2,7.4-5-3.78-95.27-119.74-96.09-124.06C281,297,288.46,277.46,304,274.09Z"/><path class="cls-177" d="M308.67,272.87c0-5,72.06-11.72,78.31-13.13,8.64-1.94,17.61,3.5,23.25,10.53,3.54,2,51,71.65,52.19,73.92,3.86,7,5.08,15.19,2,22.42.26,2.1-26.38,56.15-27.64,58.45-10.24,18.7-27,21.52-45.56,7.67-5.42-4-94.58-118.61-95.47-123.26C286,295.76,293.32,276.32,308.67,272.87Z"/><path class="cls-178" d="M313.41,271.53c0-5.37,71.43-11.92,78.13-13.38,8.65-1.88,17.6,3.54,23.28,10.54,3.79,2.17,50.68,71,52,73.38,3.83,7,5.06,15.1,2,22.29.28,2.25-26,55.68-27.37,58.15-10.37,18.92-27,22-45.92,7.93C389.7,426.13,301.63,313,300.68,308,291,294.36,298.29,275.08,313.41,271.53Z"/><path class="cls-179" d="M318.26,270.1c0-5.72,70.79-12.12,78-13.63,8.65-1.81,17.59,3.58,23.31,10.54,4,2.31,50.41,70.26,51.82,72.84,3.8,7,5,15,2,22.17.3,2.4-25.65,55.21-27.09,57.84-10.51,19.15-27,22.38-46.28,8.2-6.23-4.58-93.21-116.34-94.23-121.65C296.24,292.86,303.37,273.73,318.26,270.1Z"/><path class="cls-180" d="M323.2,268.57c0-6.08,70.15-12.33,77.77-13.87,8.65-1.75,17.58,3.62,23.34,10.55,4.3,2.46,50.13,69.56,51.63,72.31,3.77,6.93,5,14.92,2.05,22,.32,2.55-25.29,54.75-26.82,57.54-10.64,19.37-27,22.82-46.64,8.46-6.64-4.84-92.53-115.2-93.61-120.85C301.53,291.26,308.54,272.29,323.2,268.57Z"/><path class="cls-181" d="M328.24,266.94c0-6.44,69.51-12.55,77.59-14.12,8.66-1.68,17.57,3.65,23.37,10.55,4.55,2.6,49.86,68.86,51.44,71.77,3.75,6.89,5,14.83,2.08,21.91.34,2.7-24.92,54.28-26.55,57.23-10.77,19.59-26.94,23.25-47,8.73-7-5.1-91.85-114.07-93-120C306.92,289.56,313.81,270.75,328.24,266.94Z"/><path class="cls-182" d="M333.36,265.21c0-6.8,68.87-12.78,77.41-14.37s16.46,4.8,23.41,10.56c4.26,3.53,49.58,68.16,51.25,71.24,3.72,6.85,5,14.74,2.11,21.78.36,2.85-24.56,53.81-26.27,56.93-10.91,19.81-26.92,23.69-47.37,9-7.46-5.36-91.16-112.93-92.37-119.24C312.39,287.76,319.15,269.1,333.36,265.21Z"/><path class="cls-183" d="M338.56,263.4c0-7.16,68.23-13,77.23-14.62,8.66-1.55,16.47,4.82,23.44,10.57,4.49,3.7,49.31,67.46,51.06,70.7,3.69,6.81,4.93,14.65,2.14,21.65.38,3-24.19,53.34-26,56.62-11,20-26.9,24.13-47.73,9.26C410.84,412,328.23,305.79,327,299.15,317.93,285.89,324.58,267.39,338.56,263.4Z"/><path class="cls-184" d="M343.83,261.52c0-7.51,67.59-13.24,77.06-14.87,8.66-1.49,16.49,4.85,23.47,10.57,4.73,3.88,49,66.76,50.88,70.17,3.67,6.78,4.9,14.56,2.17,21.52.4,3.14-23.82,52.87-25.72,56.32-11.17,20.26-26.87,24.56-48.09,9.53-8.28-5.87-89.79-110.66-91.13-117.64C323.56,283.94,330.08,265.59,343.83,261.52Z"/><path class="cls-185" d="M349.17,259.55c0-7.87,66.95-13.49,76.88-15.12,8.67-1.42,16.5,4.87,23.5,10.58,5,4,48.76,66.07,50.69,69.63,3.64,6.74,4.88,14.47,2.2,21.39.41,3.29-23.46,52.4-25.45,56-11.31,20.48-26.85,25-48.45,9.8C419.84,405.72,339.43,302.32,338,295,329.24,281.9,335.65,263.72,349.17,259.55Z"/><path class="cls-186" d="M354.57,257.51c0-8.23,66.3-13.74,76.7-15.36,8.67-1.36,16.51,4.9,23.54,10.58,5.21,4.21,48.49,65.37,50.5,69.1,3.61,6.7,4.85,14.38,2.23,21.27.43,3.44-23.09,51.94-25.17,55.71-11.44,20.7-26.83,25.44-48.81,10.06-9.11-6.37-88.42-108.39-89.89-116C335,279.8,341.28,261.76,354.57,257.51Z"/><path class="cls-187" d="M360,255.4c0-8.59,65.66-14,76.52-15.61,8.67-1.29,16.52,4.92,23.57,10.59,5.45,4.38,48.22,64.67,50.31,68.56,3.58,6.66,4.82,14.29,2.26,21.14.45,3.59-22.72,51.47-24.9,55.4C476.2,416.4,461,421.35,438.6,405.8c-9.52-6.62-87.74-107.26-89.27-115.23C340.8,277.62,347,259.74,360,255.4Z"/><path class="cls-188" d="M365.53,253.24c0-8.94,65-17.5,76.34-15.86a48.67,48.67,0,0,1,23.6,10.6c5.69,4.55,47.94,64,50.12,68,3.56,6.62,4.8,14.2,2.29,21,.47,3.74-22.36,51-24.63,55.1-11.71,21.15-26.78,26.31-49.54,10.59-9.94-6.87-87.05-106.12-88.65-114.43C346.65,275.39,352.7,257.67,365.53,253.24Z"/><path class="cls-189" d="M371.07,251c0-9.3,64.4-17.84,76.16-16.11a49.27,49.27,0,0,1,23.63,10.6c5.93,4.71,47.67,63.27,49.93,67.49,3.53,6.58,4.77,14.1,2.32,20.88.49,3.89-22,50.53-24.35,54.79C486.92,410,472,415.42,448.87,399.53c-10.36-7.11-86.37-105-88-113.63C352.54,273.1,358.47,255.53,371.07,251Z"/><path class="cls-190" d="M376.66,248.73c0-9.66,63.77-18.19,76-16.36A49.88,49.88,0,0,1,476.3,243c6.17,4.87,47.4,62.57,49.75,67,3.5,6.55,4.75,14,2.35,20.75.51,4-21.62,50.06-24.08,54.49-12,21.59-26.73,27.19-50.26,11.13-10.78-7.36-85.69-103.86-87.4-112.82C358.48,270.75,364.28,253.34,376.66,248.73Z"/><path class="cls-191" d="M382.27,246.39c0-10,63.14-18.53,75.8-16.61a50.51,50.51,0,0,1,23.7,10.61c6.41,5,47.13,61.87,49.56,66.42,3.48,6.51,4.72,13.92,2.38,20.62.53,4.19-21.26,49.6-23.8,54.18-12.11,21.81-26.7,27.63-50.62,11.39-11.2-7.6-85-102.72-86.78-112C364.44,268.34,370.13,251.08,382.27,246.39Z"/><path class="cls-192" d="M387.91,244c0-10.38,62.52-18.88,75.62-16.86a51.14,51.14,0,0,1,23.73,10.62c6.66,5.2,46.86,61.17,49.37,65.88,3.45,6.47,4.7,13.83,2.41,20.5.55,4.34-20.89,49.13-23.53,53.88-12.25,22-26.67,28.07-51,11.66-11.62-7.84-84.32-101.59-86.16-111.22C370.42,265.88,376,248.78,387.91,244Z"/><path class="cls-193" d="M393.56,241.55c0-10.73,61.89-19.24,75.44-17.1a51.79,51.79,0,0,1,23.76,10.63c6.9,5.35,46.59,60.47,49.18,65.35,3.42,6.43,4.67,13.74,2.44,20.37.56,4.49-20.52,48.66-23.25,53.57-12.38,22.26-26.65,28.51-51.34,11.93-12-8.08-83.63-100.45-85.54-110.42C376.43,263.37,381.88,246.42,393.56,241.55Z"/><path class="cls-194" d="M399.23,239.06c0-11.09,61.26-19.59,75.27-17.35a52.45,52.45,0,0,1,23.79,10.63c7.15,5.51,46.31,59.77,49,64.81,3.39,6.39,4.64,13.65,2.47,20.24.58,4.64-20.16,48.19-23,53.27-12.51,22.48-26.62,28.95-51.7,12.19-12.46-8.32-82.95-99.32-84.92-109.61C382.45,260.81,387.78,244,399.23,239.06Z"/><path class="cls-195" d="M404.91,236.54c0-11.45,60.64-19.95,75.09-17.6a53.13,53.13,0,0,1,23.82,10.64c7.4,5.67,46,59.07,48.8,64.27,3.37,6.36,4.62,13.56,2.5,20.11.6,4.79-19.79,47.72-22.71,53-12.65,22.7-26.59,29.39-52.07,12.46-12.88-8.56-82.26-98.18-84.3-108.81C388.47,258.22,393.68,241.59,404.91,236.54Z"/><path class="cls-196" d="M410.58,234c0-11.81,60-20.31,74.91-17.85a53.82,53.82,0,0,1,23.86,10.64c7.64,5.82,45.77,58.37,48.62,63.74,3.34,6.32,4.59,13.47,2.53,20,.62,4.94-19.42,47.26-22.43,52.65-12.78,22.92-26.56,29.83-52.43,12.72-13.3-8.8-81.58-97-83.68-108C394.49,255.59,399.58,239.11,410.58,234Z"/><path class="cls-197" d="M416.25,231.37c0-12.17,59.39-20.67,74.73-18.1a54.52,54.52,0,0,1,23.89,10.65c7.89,6,45.5,57.66,48.43,63.2,3.31,6.28,4.57,13.38,2.55,19.85.64,5.09-19.05,46.79-22.16,52.35-12.92,23.15-26.53,30.27-52.79,13-13.72-9-80.9-95.91-83.06-107.21C400.51,252.93,405.48,236.6,416.25,231.37Z"/><path class="cls-198" d="M421.42,228.75c0-12.52,58.77-21,74.55-18.35a55.24,55.24,0,0,1,23.92,10.66c8.14,6.13,45.24,57,48.24,62.67,3.29,6.24,4.54,13.29,2.58,19.73.66,5.24-18.69,46.32-21.88,52-13,23.37-26.5,30.71-53.15,13.26-14.15-9.27-78.23-95.34-82.44-106.4C408.23,249.17,410.88,234.07,421.42,228.75Z"/><path class="cls-199" d="M427.06,226.1c0-12.88,58.15-21.4,74.37-18.6a56,56,0,0,1,24,10.66c8.39,6.28,45,56.26,48,62.13,3.26,6.2,4.52,13.2,2.61,19.6.68,5.39-18.32,45.85-21.61,51.74-13.18,23.59-26.47,31.15-53.51,13.52-14.57-9.5-77.52-94.21-81.82-105.6C414.18,246.48,416.75,231.5,427.06,226.1Z"/><path class="cls-200" d="M432.69,223.42c0-13.24,57.52-21.77,74.19-18.84a56.72,56.72,0,0,1,24,10.67c8.65,6.43,44.7,55.56,47.86,61.6s4.49,13.11,2.64,19.47c.7,5.54-18,45.39-21.33,51.43-13.32,23.81-26.44,31.6-53.87,13.79-15-9.74-76.81-93.08-81.2-104.8C420.11,243.77,422.61,228.92,432.69,223.42Z"/><path class="cls-201" d="M438.28,220.73c0-13.6,56.9-22.14,74-19.09a57.48,57.48,0,0,1,24,10.67c8.9,6.58,44.43,54.86,47.67,61.06s4.46,13,2.67,19.34c.71,5.69-17.58,44.92-21.06,51.13-13.45,24-26.41,32-54.23,14.06-15.42-10-76.1-92-80.58-104C426,241,428.43,226.32,438.28,220.73Z"/><path class="cls-202" d="M443.84,218c0-14,56.28-22.51,73.83-19.34a58.27,58.27,0,0,1,24,10.68c9.15,6.72,44.16,54.16,47.48,60.52,3.18,6.09,4.44,12.93,2.7,19.21.73,5.84-17.22,44.45-20.79,50.82-13.59,24.26-26.38,32.48-54.59,14.32-15.85-10.2-75.39-90.82-80-103.19C431.87,238.3,434.22,223.7,443.84,218Z"/><path class="cls-203" d="M449.36,215.31c0-14.31,55.66-22.89,73.65-19.59a59.06,59.06,0,0,1,24.08,10.69c9.41,6.87,43.89,53.45,47.3,60,3.15,6.05,4.41,12.84,2.73,19.08.75,6-16.85,44-20.51,50.52-13.72,24.48-26.35,32.92-55,14.59C505.38,340.16,447,260.9,442.32,248.2S440,221.07,449.36,215.31Z"/><path class="cls-204" d="M454.82,212.59c0-14.67,55-23.26,73.47-19.84a59.88,59.88,0,0,1,24.11,10.69c9.66,7,43.63,52.75,47.11,59.45,3.12,6,4.39,12.75,2.76,19,.77,6.14-16.48,43.52-20.24,50.21-13.85,24.7-26.32,33.36-55.32,14.85-16.7-10.66-74-88.56-78.71-101.59C443.46,232.79,445.66,218.44,454.82,212.59Z"/><path class="cls-205" d="M460.23,209.86c0-15,54.42-23.64,73.3-20.09a60.72,60.72,0,0,1,24.15,10.7c9.92,7.16,43.36,52,46.92,58.92,3.1,6,4.36,12.66,2.79,18.83.79,6.29-16.11,43-20,49.91-14,24.93-26.29,33.81-55.68,15.12-17.13-10.89-73.28-87.42-78.09-100.79C449.17,230,451.3,215.8,460.23,209.86Z"/><path class="cls-206" d="M465.59,207.14c0-15.39,53.8-24,73.12-20.33a61.57,61.57,0,0,1,24.18,10.7c10.18,7.3,43.09,51.35,46.73,58.38,3.07,5.94,4.34,12.57,2.82,18.7.81,6.44-15.75,42.58-19.69,49.6-14.12,25.15-26.26,34.25-56,15.39-17.56-11.12-72.58-86.29-77.47-100C454.83,227.27,456.88,213.17,465.59,207.14Z"/><path class="cls-207" d="M470.87,204.42c0-15.74,53.18-24.41,72.94-20.58A62.44,62.44,0,0,1,568,194.55c10.43,7.44,42.83,50.64,46.54,57.85,3,5.9,4.31,12.47,2.85,18.57.83,6.59-15.38,42.11-19.41,49.3-14.26,25.37-26.22,34.69-56.4,15.65-18-11.35-71.88-85.16-76.85-99.18C460.41,224.51,462.39,210.54,470.87,204.42Z"/><path class="cls-208" d="M476.08,201.71c0-16.1,52.56-24.8,72.76-20.83a63.33,63.33,0,0,1,24.24,10.72c10.69,7.58,42.56,49.94,46.35,57.31,3,5.86,4.28,12.38,2.88,18.44.85,6.74-15,41.65-19.14,49-14.39,25.59-26.19,35.14-56.76,15.92-18.41-11.57-71.19-84-76.23-98.38C465.93,221.76,467.83,207.92,476.08,201.71Z"/><path class="cls-209" d="M481.44,199c0-16.46,51.95-25.19,72.58-21.08a64.25,64.25,0,0,1,24.27,10.72c11,7.71,42.3,49.24,46.17,56.78,3,5.82,3.2,12.15,2.91,18.31-.33,6.94-14.64,41.18-18.87,48.69C594,338.25,582.34,348,551.38,328.62c-18.84-11.8-70.5-82.88-75.61-97.58C471.59,219,473.42,205.31,481.44,199Z"/><path class="cls-210" d="M486.48,196.33c0-16.82,51.33-25.58,72.4-21.33a65.18,65.18,0,0,1,24.31,10.73c11.21,7.85,42,48.53,46,56.24,3,5.79,3.21,12.07,2.94,18.19-.31,7.09-14.27,40.71-18.59,48.38-14.66,26-26.12,36-57.49,16.45-19.27-12-69.81-81.75-75-96.77C476.93,216.31,478.68,202.71,486.48,196.33Z"/><path class="cls-211" d="M491.42,193.67c0-17.17,50.71-26,72.22-21.58A66.14,66.14,0,0,1,588,182.83c11.47,8,41.77,47.83,45.79,55.7,2.93,5.75,3.21,12,3,18.06-.29,7.24-13.91,40.24-18.32,48.08-14.79,26.26-26.09,36.47-57.85,16.72-19.7-12.25-69.12-80.61-74.37-96C482.18,213.61,483.86,200.14,491.42,193.67Z"/><path class="cls-212" d="M496.27,191c0-17.53,50.1-26.37,72-21.83a67.12,67.12,0,0,1,24.37,10.74c11.74,8.12,41.51,47.13,45.6,55.17,2.91,5.71,3.22,11.91,3,17.93-.27,7.39-13.54,39.78-18,47.77-14.93,26.48-26.06,36.91-58.21,17-20.13-12.47-68.44-79.47-73.75-95.17C487.33,210.93,488.94,197.59,496.27,191Z"/><path class="cls-213" d="M501,188.42c0-17.89,49.48-26.77,71.86-22.07a68.13,68.13,0,0,1,24.4,10.75c12,8.25,41.24,46.42,45.41,54.63,2.88,5.67,3.22,11.83,3,17.8-.24,7.54-13.17,39.31-17.77,47.47-15.06,26.7-26,37.35-58.57,17.25-20.56-12.7-67.76-78.33-73.13-94.37C492.38,208.28,493.92,195.07,501,188.42Z"/><path class="cls-214" d="M505.66,185.85c0-18.25,48.87-27.17,71.68-22.32a69.16,69.16,0,0,1,24.44,10.75c12.26,8.38,41,45.72,45.22,54.1,2.85,5.64,3.23,11.75,3.06,17.67-.22,7.69-12.8,38.84-17.49,47.16-15.19,26.93-26,37.8-58.93,17.52-21-12.92-67.08-77.19-72.51-93.56C497.32,205.66,498.78,192.58,505.66,185.85Z"/><path class="cls-215" d="M510.18,183.3c0-18.61,48.25-27.57,71.51-22.57a70.21,70.21,0,0,1,24.47,10.76c12.53,8.51,40.72,45,45,53.56,2.83,5.6,3.23,11.66,3.09,17.54-.19,7.85-12.43,38.38-17.22,46.86-15.33,27.15-26,38.24-59.29,17.78-21.42-13.14-66.4-76.05-71.88-92.76C502.14,203.08,503.54,190.13,510.18,183.3Z"/><path class="cls-216" d="M514.58,180.8c0-19,47.64-28,71.33-22.82a71.3,71.3,0,0,1,24.5,10.77c12.79,8.64,40.46,44.31,44.85,53,2.8,5.56,3.24,11.58,3.12,17.41-.16,8-12.06,37.91-16.95,46.55-15.46,27.37-25.92,38.69-59.65,18.05-21.85-13.37-65.73-74.91-71.26-92C506.85,200.54,508.16,187.71,514.58,180.8Z"/><path class="cls-217" d="M518.85,178.34c0-19.32,47-28.38,71.15-23.07A72.41,72.41,0,0,1,614.53,166c13.06,8.76,40.2,43.6,44.66,52.49,2.77,5.52,3.24,11.5,3.15,17.29-.13,8.15-11.7,37.44-16.67,46.25-15.6,27.59-25.89,39.13-60,18.32-22.28-13.59-65.07-73.77-70.64-91.16C511.42,198,512.67,185.34,518.85,178.34Z"/><path class="cls-218" d="M523,175.92c0-19.68,46.42-28.79,71-23.32a73.55,73.55,0,0,1,24.56,10.78c13.32,8.89,39.93,42.9,44.47,52,2.75,5.48,3.25,11.42,3.18,17.16-.1,8.3-11.33,37-16.4,45.94C634,306.25,623.92,318,589.4,297c-22.71-13.81-64.4-72.62-70-90.35C515.86,195.58,517,183,523,175.92Z"/><path class="cls-219" d="M527,173.56c0-20,45.81-29.2,70.79-23.57a74.72,74.72,0,0,1,24.6,10.78c13.59,9,39.67,42.19,44.28,51.42,2.72,5.45,3.25,11.33,3.21,17-.06,8.45-11,36.51-16.12,45.64-15.86,28-25.82,40-60.74,18.85-23.14-14-63.74-71.48-69.4-89.55C520.16,193.17,521.26,180.74,527,173.56Z"/><path class="cls-220" d="M530.84,171.25c0-20.39,45.19-29.62,70.61-23.81a75.92,75.92,0,0,1,24.63,10.79c13.86,9.14,39.42,41.48,44.09,50.88,2.69,5.41,3.25,11.25,3.24,16.9,0,8.6-10.59,36-15.85,45.33-16,28.26-25.78,40.47-61.1,19.12-23.57-14.25-63.08-70.33-68.78-88.75C524.32,190.82,525.34,178.52,530.84,171.25Z"/><path class="cls-221" d="M534.54,169c0-20.75,44.58-30,70.43-24.06a77.15,77.15,0,0,1,24.66,10.8c14.13,9.26,39.16,40.78,43.91,50.35,2.67,5.37,3.26,11.17,3.27,16.77,0,8.75-10.22,35.57-15.57,45-16.13,28.48-25.75,40.91-61.46,19.38-24-14.47-62.43-69.19-68.16-87.95C528.32,188.53,529.27,176.35,534.54,169Z"/><path class="cls-222" d="M538.09,166.81c0-21.11,44-30.45,70.25-24.31A78.42,78.42,0,0,1,633,153.3c14.4,9.38,38.9,40.07,43.72,49.81,2.64,5.33,3.26,11.08,3.3,16.64.05,8.91-9.85,35.11-15.3,44.72-16.27,28.71-25.71,41.36-61.82,19.65-24.44-14.69-61.78-68-67.54-87.14C532.16,186.29,533,174.25,538.09,166.81Z"/><path class="cls-223" d="M541.47,164.68c0-21.47,43.37-30.87,70.07-24.56a79.72,79.72,0,0,1,24.72,10.81c14.67,9.5,38.64,39.37,43.53,49.28,2.61,5.3,3.27,11,3.33,16.52.1,9.06-9.48,34.64-15,44.42-16.4,28.93-25.68,41.8-62.18,19.91C581,266.15,544.78,214.16,539,194.71,535.84,184.13,536.65,172.22,541.47,164.68Z"/><path class="cls-224" d="M544.68,162.63c0-21.83,42.76-31.3,69.89-24.81a81.06,81.06,0,0,1,24.76,10.81c14.94,9.61,38.38,38.66,43.34,48.74,2.59,5.26,3.27,10.91,3.36,16.39.14,9.21-9.11,34.17-14.75,44.11-16.53,29.15-25.64,42.25-62.54,20.18-25.3-15.13-60.49-65.74-66.3-85.54C539.35,182,540.09,170.25,544.68,162.63Z"/><path class="cls-225" d="M547.71,160.65c0-22.18,42.15-31.72,69.72-25.06a82.44,82.44,0,0,1,24.79,10.82c15.21,9.73,38.13,38,43.15,48.2,2.56,5.22,3.28,10.83,3.39,16.26.19,9.36-8.75,33.71-14.48,43.81-16.67,29.37-25.6,42.69-62.91,20.45-25.73-15.35-59.85-64.59-65.68-84.74C542.69,180,543.36,168.36,547.71,160.65Z"/><path class="cls-226" d="M550.56,158.74c0-22.54,41.55-32.15,69.54-25.3a83.86,83.86,0,0,1,24.82,10.83c15.48,9.84,37.87,37.24,43,47.67,2.53,5.18,3.28,10.74,3.41,16.13.24,9.51-8.38,33.24-14.2,43.5-16.8,29.6-25.57,43.14-63.27,20.71-26.17-15.56-59.22-63.44-65.06-83.93C545.84,178.05,546.44,166.54,550.56,158.74Z"/><path class="cls-227" d="M553.23,156.92c0-22.9,40.94-32.58,69.36-25.55a85.31,85.31,0,0,1,24.85,10.83c15.75,10,37.62,36.53,42.77,47.13a38.66,38.66,0,0,1,3.44,16c.29,9.66-8,32.77-13.93,43.2-16.94,29.82-25.53,43.58-63.63,21-26.6-15.78-58.59-62.29-64.44-83.13C548.81,176.18,549.33,164.8,553.23,156.92Z"/><path class="cls-228" d="M555.7,155.18c0-23.26,40.34-33,69.18-25.8a86.82,86.82,0,0,1,24.89,10.84c16,10.07,37.36,35.83,42.59,46.6a39,39,0,0,1,3.47,15.87c.34,9.8-7.64,32.31-13.65,42.89-17.07,30-25.5,44-64,21.25-27-16-58-61.14-63.81-82.33C551.58,174.4,552,163.15,555.7,155.18Z"/><path class="cls-229" d="M558,153.52c0-23.61,39.73-33.45,69-26.05a88.37,88.37,0,0,1,24.92,10.84c16.3,10.18,37.11,35.12,42.4,46.06a39.29,39.29,0,0,1,3.5,15.75c.39,10-7.27,31.84-13.38,42.59-17.2,30.26-25.46,44.47-64.35,21.51-27.46-16.22-57.34-60-63.19-81.53C554.15,172.7,554.53,161.59,558,153.52Z"/><path class="cls-230" d="M560,152c0-24,39.13-33.88,68.82-26.3a90,90,0,0,1,24.95,10.85C670.38,146.81,690.66,170.92,696,182a39.63,39.63,0,0,1,3.53,15.62c.45,10.1-6.9,31.37-13.11,42.28-17.34,30.49-25.42,44.92-64.71,21.78C593.83,245.29,565,202.89,559.16,181,556.51,171.09,556.82,160.12,560,152Z"/><path class="cls-231" d="M561.66,150.48c4.2-24,38.53-34.32,68.64-26.55a91.61,91.61,0,0,1,25,10.86c16.85,10.4,36.6,33.7,42,45a40,40,0,0,1,3.56,15.49c.51,10.25-6.53,30.91-12.83,42-17.47,30.71-25.39,45.37-65.07,22-28.33-16.65-56.12-57.68-62-79.92C558.44,169.56,560.15,159.11,561.66,150.48Z"/><path class="cls-232" d="M563.31,149.11c3.92-24.37,37.93-34.76,68.46-26.8a93.31,93.31,0,0,1,25,10.86c17.13,10.51,36.35,33,41.83,44.46A40.38,40.38,0,0,1,702.21,193c.58,10.4-6.14,30.45-12.56,41.67-17.54,31-25.35,45.81-65.43,22.31-28.76-16.86-55.52-56.52-61.33-79.12C560.39,168.15,561.91,157.78,563.31,149.11Z"/><path class="cls-233" d="M564.73,147.86c3.64-24.78,37.32-35.2,68.28-27a95.06,95.06,0,0,1,25,10.87c17.4,10.62,36.1,32.28,41.64,43.92a40.79,40.79,0,0,1,3.62,15.23c.64,10.55-5.77,30-12.28,41.37-17.68,31.19-25.31,46.26-65.8,22.58-29.2-17.08-54.92-55.36-60.71-78.32C562.1,166.84,563.45,156.55,564.73,147.86Z"/><path class="cls-234" d="M565.92,146.71c3.34-25.18,36.72-35.65,68.1-27.29a96.87,96.87,0,0,1,25.08,10.87C676.78,141,695,161.86,700.56,173.67a41.23,41.23,0,0,1,3.65,15.1c.71,10.69-5.41,29.52-12,41.06-17.82,31.4-25.28,46.7-66.16,22.84-29.63-17.29-54.32-54.21-60.09-77.51C563.59,165.64,564.76,155.44,565.92,146.71Z"/><path class="cls-235" d="M566.87,145.67c3-25.58,36.13-36.1,67.93-27.54A98.74,98.74,0,0,1,659.91,129c18,10.83,35.6,30.86,41.27,42.85a41.7,41.7,0,0,1,3.68,15c.78,10.84-5,29-11.73,40.75-18,31.62-25.24,47.15-66.52,23.11-30.07-17.51-53.73-53-59.47-76.71C564.85,164.55,565.83,154.45,566.87,145.67Z"/><path class="cls-236" d="M567.59,144.74c2.72-26,35.53-36.55,67.75-27.79a100.68,100.68,0,0,1,25.14,10.89c18.23,10.93,35.35,30.15,41.08,42.31A42.19,42.19,0,0,1,705.27,185c.85,11-4.67,28.58-11.46,40.45-18.1,31.84-25.2,47.59-66.88,23.38-30.5-17.72-53.15-51.89-58.85-75.91C565.86,163.58,566.66,153.57,567.59,144.74Z"/><path class="cls-237" d="M568.06,143.93c2.4-26.37,34.93-37,67.57-28a102.68,102.68,0,0,1,25.18,10.89c18.51,11,35.11,29.44,40.89,41.78a42.72,42.72,0,0,1,3.74,14.72c.92,11.13-4.31,28.11-11.19,40.14-18.24,32.06-25.16,48-67.24,23.64-30.94-17.94-52.58-50.73-58.23-75.11C566.63,162.72,567.25,152.82,568.06,143.93Z"/><path class="cls-238" d="M568.28,143.25c2.07-26.75,34.33-37.45,67.39-28.29a104.75,104.75,0,0,1,25.21,10.9c18.79,11.13,34.86,28.72,40.7,41.24a43.28,43.28,0,0,1,3.77,14.59c1,11.28-3.94,27.65-10.91,39.84-18.38,32.28-25.13,48.49-67.6,23.91-31.37-18.15-52-49.57-57.61-74.3C567.15,162,567.59,152.19,568.28,143.25Z"/><path class="cls-239" d="M568.24,142.69c1.74-27.14,33.74-37.91,67.21-28.54a106.89,106.89,0,0,1,25.24,10.9c19.07,11.23,34.61,28,40.51,40.71a43.88,43.88,0,0,1,3.8,14.46c1.08,11.42-3.57,27.18-10.64,39.53-18.52,32.5-25.09,48.93-68,24.17-31.8-18.37-51.44-48.4-57-73.5C567.41,161.37,567.66,151.7,568.24,142.69Z"/><path class="cls-240" d="M567.94,142.26c1.4-27.52,33.14-38.36,67-28.78a109.12,109.12,0,0,1,25.27,10.91c19.35,11.33,34.37,27.3,40.33,40.17a44.52,44.52,0,0,1,3.83,14.33c1.17,11.56-3.2,26.71-10.36,39.23-18.66,32.72-25.05,49.38-68.33,24.44-32.24-18.58-50.89-47.24-56.37-72.7C567.42,160.89,567.48,151.34,567.94,142.26Z"/><path class="cls-241" d="M567.39,142c1.06-27.89,32.55-38.82,66.85-29a111.42,111.42,0,0,1,25.3,10.92c19.63,11.42,34.12,26.59,40.14,39.63a45.21,45.21,0,0,1,3.86,14.2c1.25,11.71-2.84,26.24-10.09,38.92-18.8,32.94-25,49.83-68.69,24.71-32.67-18.79-50.34-46.08-55.75-71.9C567.15,160.54,567,151.12,567.39,142Z"/><path class="cls-242" d="M566.56,141.79c.71-28.26,32-39.29,66.67-29.28a113.82,113.82,0,0,1,25.34,10.92c19.91,11.52,33.88,25.87,39.95,39.1a45.94,45.94,0,0,1,3.89,14.08c1.34,11.85-2.47,25.77-9.81,38.62-18.94,33.16-25,50.35-69,25-33.14-19-49.79-44.92-55.12-71.09C566.63,160.31,566.33,151,566.56,141.79Z"/><path class="cls-243" d="M565.46,141.78c.36-28.62,31.36-39.75,66.49-29.53a116.3,116.3,0,0,1,25.37,10.93c20.19,11.62,33.66,25.15,39.76,38.56A46.46,46.46,0,0,1,701,175.69c1.43,12-2.1,25.31-9.54,38.31-19.08,33.38-25,50.76-69.41,25.24-33.56-19.19-49.26-43.75-54.5-70.29A132,132,0,0,1,565.46,141.78Z"/><path class="cls-1" d="M690.06,212.93c-19.21,33.6-24.9,51.17-69.77,25.51s-56.21-57.81-56.2-96.52c0-35.76,46.84-44.5,91.71-18.84S709.27,179.33,690.06,212.93Z"/></g></g></svg>