<?xml version="1.0" encoding="UTF-8"?>
<svg width="116px" height="116px" viewBox="0 0 116 116" version="1.1" xmlns="http://www.w3.org/2000/svg" xmlns:xlink="http://www.w3.org/1999/xlink">
    <!-- Generator: Sketch 47.1 (45422) - http://www.bohemiancoding.com/sketch -->
    <title>Asset 10</title>
    <desc>Created with Sketch.</desc>
    <defs></defs>
    <g id="Page-1" stroke="none" stroke-width="1" fill="none" fill-rule="evenodd" fill-opacity="0.8">
        <g id="cashbytes_1200px" transform="translate(-1062.000000, -1192.000000)" fill-rule="nonzero" fill="#000000">
            <g id="Asset-10" transform="translate(1062.000000, 1192.000000)">
                <path d="M12,56 C5.372583,56 8.11624501e-16,50.627417 0,44 C-8.11624501e-16,37.372583 5.372583,32 12,32 C18.627417,32 24,37.372583 24,44 C24,47.1825979 22.7357179,50.2348448 20.4852814,52.4852814 C18.2348448,54.7357179 15.1825979,56 12,56 L12,56 Z M12,36 C7.581722,36 4,39.581722 4,44 C4,48.418278 7.581722,52 12,52 C16.418278,52 20,48.418278 20,44 C20,39.581722 16.418278,36 12,36 Z" id="Shape"></path>
                <path d="M72,56 C65.372583,56 60,50.627417 60,44 C60,37.372583 65.372583,32 72,32 C78.627417,32 84,37.372583 84,44 C84,47.1825979 82.7357179,50.2348448 80.4852814,52.4852814 C78.2348448,54.7357179 75.1825979,56 72,56 L72,56 Z M72,36 C67.581722,36 64,39.581722 64,44 C64,48.418278 67.581722,52 72,52 C76.418278,52 80,48.418278 80,44 C80,39.581722 76.418278,36 72,36 Z" id="Shape"></path>
                <path d="M62,46 L22,46 C20.8954305,46 20,45.1045695 20,44 C20,42.8954305 20.8954305,42 22,42 L62,42 C63.1045695,42 64,42.8954305 64,44 C64,45.1045695 63.1045695,46 62,46 Z" id="Shape"></path>
                <path d="M12,116 C5.372583,116 8.11624501e-16,110.627417 0,104 C-8.11624501e-16,97.372583 5.372583,92 12,92 C18.627417,92 24,97.372583 24,104 C24,110.627417 18.627417,116 12,116 Z M12,96 C7.581722,96 4,99.581722 4,104 C4,108.418278 7.581722,112 12,112 C16.418278,112 20,108.418278 20,104 C20,99.581722 16.418278,96 12,96 Z" id="Shape"></path>
                <path d="M72,116 C65.372583,116 60,110.627417 60,104 C60,97.372583 65.372583,92 72,92 C78.627417,92 84,97.372583 84,104 C84,110.627417 78.627417,116 72,116 Z M72,96 C67.581722,96 64,99.581722 64,104 C64,108.418278 67.581722,112 72,112 C76.418278,112 80,108.418278 80,104 C80,99.581722 76.418278,96 72,96 Z" id="Shape"></path>
                <path d="M62,106 L22,106 C20.8954305,106 20,105.104569 20,104 C20,102.895431 20.8954305,102 22,102 L62,102 C63.1045695,102 64,102.895431 64,104 C64,105.104569 63.1045695,106 62,106 Z" id="Shape"></path>
                <path d="M12,96 C10.8954305,96 10,95.1045695 10,94 L10,54 C10,52.8954305 10.8954305,52 12,52 C13.1045695,52 14,52.8954305 14,54 L14,94 C14,95.1045695 13.1045695,96 12,96 Z" id="Shape"></path>
                <path d="M72,96 C70.8954305,96 70,95.1045695 70,94 L70,54 C70,52.8954305 70.8954305,52 72,52 C73.1045695,52 74,52.8954305 74,54 L74,94 C74,95.1045695 73.1045695,96 72,96 Z" id="Shape"></path>
                <path d="M44,24 C37.372583,24 32,18.627417 32,12 C32,5.372583 37.372583,1.21743675e-15 44,0 C50.627417,-1.21743675e-15 56,5.372583 56,12 C56,18.627417 50.627417,24 44,24 Z M44,4 C39.581722,4 36,7.581722 36,12 C36,16.418278 39.581722,20 44,20 C48.418278,20 52,16.418278 52,12 C52,9.87826808 51.1571453,7.84343678 49.6568542,6.34314575 C48.1565632,4.84285472 46.1217319,4 44,4 Z" id="Shape"></path>
                <path d="M104,24 C97.372583,24 92,18.627417 92,12 C92,5.372583 97.372583,1.21743675e-15 104,0 C110.627417,-1.21743675e-15 116,5.372583 116,12 C116,15.1825979 114.735718,18.2348448 112.485281,20.4852814 C110.234845,22.7357179 107.182598,24 104,24 Z M104,4 C99.581722,4 96,7.581722 96,12 C96,16.418278 99.581722,20 104,20 C108.418278,20 112,16.418278 112,12 C112,9.87826808 111.157145,7.84343678 109.656854,6.34314575 C108.156563,4.84285472 106.121732,4 104,4 Z" id="Shape"></path>
                <path d="M94,14 L54,14 C52.8954305,14 52,13.1045695 52,12 C52,10.8954305 52.8954305,10 54,10 L94,10 C95.1045695,10 96,10.8954305 96,12 C96,13.1045695 95.1045695,14 94,14 Z" id="Shape"></path>
                <path d="M44,84 C37.372583,84 32,78.627417 32,72 C32,65.372583 37.372583,60 44,60 C50.627417,60 56,65.372583 56,72 C56,78.627417 50.627417,84 44,84 Z M44,64 C39.581722,64 36,67.581722 36,72 C36,76.418278 39.581722,80 44,80 C48.418278,80 52,76.418278 52,72 C52,67.581722 48.418278,64 44,64 Z" id="Shape"></path>
                <path d="M104,84 C97.372583,84 92,78.627417 92,72 C92,65.372583 97.372583,60 104,60 C110.627417,60 116,65.372583 116,72 C116,78.627417 110.627417,84 104,84 Z M104,64 C99.581722,64 96,67.581722 96,72 C96,76.418278 99.581722,80 104,80 C108.418278,80 112,76.418278 112,72 C112,67.581722 108.418278,64 104,64 Z" id="Shape"></path>
                <path d="M56,74 L54,74 C52.8954305,74 52,73.1045695 52,72 C52,70.8954305 52.8954305,70 54,70 L56,70 C57.1045695,70 58,70.8954305 58,72 C58,73.1045695 57.1045695,74 56,74 Z" id="Shape"></path>
                <path d="M86,74 L82,74 C80.8954305,74 80,73.1045695 80,72 C80,70.8954305 80.8954305,70 82,70 L86,70 C87.1045695,70 88,70.8954305 88,72 C88,73.1045695 87.1045695,74 86,74 Z M76,74 L72,74 C70.8954305,74 70,73.1045695 70,72 C70,70.8954305 70.8954305,70 72,70 L76,70 C77.1045695,70 78,70.8954305 78,72 C78,73.1045695 77.1045695,74 76,74 Z M66,74 L62,74 C60.8954305,74 60,73.1045695 60,72 C60,70.8954305 60.8954305,70 62,70 L66,70 C67.1045695,70 68,70.8954305 68,72 C68,73.1045695 67.1045695,74 66,74 Z" id="Shape"></path>
                <path d="M94,74 L92,74 C90.8954305,74 90,73.1045695 90,72 C90,70.8954305 90.8954305,70 92,70 L94,70 C95.1045695,70 96,70.8954305 96,72 C96,73.1045695 95.1045695,74 94,74 Z" id="Shape"></path>
                <path d="M44,26 C42.8954305,26 42,25.1045695 42,24 L42,22 C42,20.8954305 42.8954305,20 44,20 C45.1045695,20 46,20.8954305 46,22 L46,24 C46,25.1045695 45.1045695,26 44,26 Z" id="Shape"></path>
                <path d="M44,56 C42.8954305,56 42,55.1045695 42,54 L42,50 C42,48.8954305 42.8954305,48 44,48 C45.1045695,48 46,48.8954305 46,50 L46,54 C46,55.1045695 45.1045695,56 44,56 Z M44,46 C42.8954305,46 42,45.1045695 42,44 L42,40 C42,38.8954305 42.8954305,38 44,38 C45.1045695,38 46,38.8954305 46,40 L46,44 C46,45.1045695 45.1045695,46 44,46 Z M44,36 C42.8954305,36 42,35.1045695 42,34 L42,30 C42,28.8954305 42.8954305,28 44,28 C45.1045695,28 46,28.8954305 46,30 L46,34 C46,35.1045695 45.1045695,36 44,36 Z" id="Shape"></path>
                <path d="M44,64 C42.8954305,64 42,63.1045695 42,62 L42,60 C42,58.8954305 42.8954305,58 44,58 C45.1045695,58 46,58.8954305 46,60 L46,62 C46,63.1045695 45.1045695,64 44,64 Z" id="Shape"></path>
                <path d="M104,64 C102.895431,64 102,63.1045695 102,62 L102,22 C102,20.8954305 102.895431,20 104,20 C105.104569,20 106,20.8954305 106,22 L106,62 C106,63.1045695 105.104569,64 104,64 Z" id="Shape"></path>
                <path d="M19.038484,38.9999655 C18.2151321,39.0047518 17.4707179,38.5111181 17.1549862,37.7509861 C16.8392546,36.9908541 17.0149679,36.1153259 17.5995716,35.5357471 L35.433979,17.7081904 C35.9292687,17.1300586 36.7069472,16.8782326 37.4472789,17.0562485 C38.1876106,17.2342644 38.7656456,17.8120773 38.9437299,18.5521247 C39.1218142,19.292172 38.8698915,20.0695518 38.2915375,20.5646511 L20.45713,38.3922079 C20.0829511,38.7739086 19.5730486,38.9923543 19.038484,38.9999655 L19.038484,38.9999655 Z" id="Shape"></path>
                <path d="M79.038484,38.9999655 C78.2151321,39.0047518 77.4707179,38.5111181 77.1549862,37.7509861 C76.8392546,36.9908541 77.0149679,36.1153259 77.5995716,35.5357471 L95.433979,17.7081904 C95.9292687,17.1300586 96.7069472,16.8782326 97.4472789,17.0562485 C98.1876106,17.2342644 98.7656456,17.8120773 98.9437299,18.5521247 C99.1218142,19.292172 98.8698915,20.0695518 98.2915375,20.5646511 L80.45713,38.3922079 C80.0829511,38.7739086 79.5730486,38.9923543 79.038484,38.9999655 Z" id="Shape"></path>
                <path d="M34.9262914,81.9979613 C34.1653031,82.0337096 33.4609959,81.5966383 33.1549994,80.8987523 C32.8490028,80.2008663 33.0046122,79.3865231 33.546348,78.8507259 L34.8526944,77.5439791 C35.5690888,76.8222828 36.7347124,76.8181628 37.4561875,77.5347767 C38.1776627,78.2513907 38.1817815,79.4173715 37.4653872,80.1390679 L36.1590408,81.4458147 C35.83296,81.7795366 35.392325,81.9768963 34.9262914,81.9979613 L34.9262914,81.9979613 Z" id="Shape"></path>
                <path d="M24.0367067,93.9999655 C23.2140726,94.0047462 22.4703075,93.5117004 22.1548511,92.7524737 C21.8393948,91.993247 22.0149549,91.1187616 22.5990488,90.539873 L24.9074009,88.2331447 C25.7107889,87.5456247 26.9083658,87.5918494 27.6562902,88.3392477 C28.4042146,89.086646 28.4504718,90.2833805 27.7624679,91.0862034 L25.4541158,93.3929318 C25.0802631,93.7741778 24.5708052,93.9923634 24.0367067,93.9999655 Z M29.7873381,88.2533791 C28.964704,88.2581598 28.2209389,87.765114 27.9054825,87.0058873 C27.5900262,86.2466606 27.7655863,85.3721752 28.3496802,84.7932866 L30.6580323,82.4865583 C31.4614203,81.7990383 32.6589972,81.8452629 33.4069216,82.5926612 C34.154846,83.3400595 34.2011032,84.536794 33.5130993,85.339617 L31.2249959,87.6665798 C30.8428648,88.0453416 30.3255546,88.2564887 29.7873381,88.2533791 Z" id="Shape"></path>
                <path d="M18.8548242,97.9999686 C18.1056532,98.0043267 17.428308,97.5548575 17.1410226,96.8627332 C16.8537372,96.1706089 17.0136194,95.3734126 17.5455524,94.8456877 L18.8548242,93.5360155 C19.322582,93.0714098 20.0025964,92.8917185 20.6387127,93.0646296 C21.2748289,93.2375407 21.7704058,93.7367849 21.9387643,94.3743018 C22.1071228,95.0118186 21.9226852,95.6907541 21.4549274,96.1553599 L20.1456556,97.4650321 C19.8021826,97.8058128 19.3385907,97.997931 18.8548242,97.9999686 L18.8548242,97.9999686 Z" id="Shape"></path>
                <path d="M79.965583,99.9999652 C79.1716761,100.0048 78.4538839,99.5061561 78.1494436,98.7383089 C77.8450032,97.9704617 78.0144326,97.0860471 78.5781295,96.5005856 L95.7747368,78.4920828 C96.5500698,77.7967565 97.7058262,77.843506 98.4276324,78.5993905 C99.1494386,79.355275 99.1940805,80.5655976 98.5301023,81.3775361 L81.333495,99.3860389 C80.9726975,99.7716138 80.4810304,99.9922767 79.965583,99.9999652 L79.965583,99.9999652 Z" id="Shape"></path>
            </g>
        </g>
    </g>
</svg>