<?xml version="1.0" encoding="utf-8"?>
<!-- Generator: Adobe Illustrator 19.2.1, SVG Export Plug-In . SVG Version: 6.00 Build 0)  -->
<svg version="1.1" id="Слой_1" xmlns="http://www.w3.org/2000/svg" xmlns:xlink="http://www.w3.org/1999/xlink" x="0px" y="0px"
	 viewBox="0 0 1113 2" style="enable-background:new 0 0 1113 2;" xml:space="preserve">
<style type="text/css">
	.st0{fill:#68686A;}
</style>
<path id="Прямоугольник_1_копия_6" class="st0" d="M315,0h3v2h-3V0z M635,0h3v2h-3V0z M630,0h3v2h-3V0z M625,0h3
	v2h-3V0z M620,0h3v2h-3V0z M615,0h3v2h-3V0z M610,0h3v2h-3V0z M605,0h3v2h-3V0z M600,0h3v2h-3V0z M595,0h3v2h-3V0z M590,0h3v2h-3V0z
	 M585,0h3v2h-3V0z M580,0h3v2h-3V0z M575,0h3v2h-3V0z M570,0h3v2h-3V0z M565,0h3v2h-3V0z M560,0h3v2h-3V0z M555,0h3v2h-3V0z M550,0
	h3v2h-3V0z M545,0h3v2h-3V0z M540,0h3v2h-3V0z M535,0h3v2h-3V0z M530,0h3v2h-3V0z M525,0h3v2h-3V0z M520,0h3v2h-3V0z M515,0h3v2h-3
	V0z M510,0h3v2h-3V0z M505,0h3v2h-3V0z M500,0h3v2h-3V0z M495,0h3v2h-3V0z M490,0h3v2h-3V0z M485,0h3v2h-3V0z M480,0h3v2h-3V0z
	 M475,0h3v2h-3V0z M470,0h3v2h-3V0z M465,0h3v2h-3V0z M460,0h3v2h-3V0z M455,0h3v2h-3V0z M450,0h3v2h-3V0z M445,0h3v2h-3V0z M440,0
	h3v2h-3V0z M435,0h3v2h-3V0z M430,0h3v2h-3V0z M425,0h3v2h-3V0z M420,0h3v2h-3V0z M415,0h3v2h-3V0z M410,0h3v2h-3V0z M405,0h3v2h-3
	V0z M400,0h3v2h-3V0z M395,0h3v2h-3V0z M390,0h3v2h-3V0z M385,0h3v2h-3V0z M380,0h3v2h-3V0z M375,0h3v2h-3V0z M370,0h3v2h-3V0z
	 M365,0h3v2h-3V0z M360,0h3v2h-3V0z M355,0h3v2h-3V0z M350,0h3v2h-3V0z M345,0h3v2h-3V0z M340,0h3v2h-3V0z M335,0h3v2h-3V0z M330,0
	h3v2h-3V0z M325,0h3v2h-3V0z M320,0h3v2h-3V0z M310,0h3v2h-3V0z M305,0h3v2h-3V0z M300,0h3v2h-3V0z M295,0h3v2h-3V0z M290,0h3v2h-3
	V0z M285,0h3v2h-3V0z M280,0h3v2h-3V0z M275,0h3v2h-3V0z M270,0h3v2h-3V0z M265,0h3v2h-3V0z M260,0h3v2h-3V0z M255,0h3v2h-3V0z
	 M250,0h3v2h-3V0z M245,0h3v2h-3V0z M240,0h3v2h-3V0z M235,0h3v2h-3V0z M230,0h3v2h-3V0z M225,0h3v2h-3V0z M220,0h3v2h-3V0z M215,0
	h3v2h-3V0z M210,0h3v2h-3V0z M205,0h3v2h-3V0z M200,0h3v2h-3V0z M195,0h3v2h-3V0z M190,0h3v2h-3V0z M185,0h3v2h-3V0z M180,0h3v2h-3
	V0z M175,0h3v2h-3V0z M170,0h3v2h-3V0z M165,0h3v2h-3V0z M160,0h3v2h-3V0z M155,0h3v2h-3V0z M150,0h3v2h-3V0z M145,0h3v2h-3V0z
	 M140,0h3v2h-3V0z M135,0h3v2h-3V0z M130,0h3v2h-3V0z M125,0h3v2h-3V0z M120,0h3v2h-3V0z M115,0h3v2h-3V0z M110,0h3v2h-3V0z M105,0
	h3v2h-3V0z M100,0h3v2h-3V0z M95,0h3v2h-3V0z M90,0h3v2h-3V0z M85,0h3v2h-3V0z M80,0h3v2h-3V0z M75,0h3v2h-3V0z M70,0h3v2h-3V0z
	 M65,0h3v2h-3V0z M60,0h3v2h-3V0z M55,0h3v2h-3V0z M50,0h3v2h-3V0z M45,0h3v2h-3V0z M40,0h3v2h-3V0z M35,0h3v2h-3V0z M30,0h3v2h-3V0
	z M25,0h3v2h-3V0z M20,0h3v2h-3V0z M15,0h3v2h-3V0z M10,0h3v2h-3V0z M5,0h3v2H5V0z M0,0h3v2H0V0z M925,0h3v2h-3V0z M1110,0h3v2h-3V0
	z M1105,0h3v2h-3V0z M1100,0h3v2h-3V0z M1095,0h3v2h-3V0z M1090,0h3v2h-3V0z M1085,0h3v2h-3V0z M1080,0h3v2h-3V0z M1075,0h3v2h-3V0z
	 M1070,0h3v2h-3V0z M1065,0h3v2h-3V0z M1060,0h3v2h-3V0z M1055,0h3v2h-3V0z M1050,0h3v2h-3V0z M1045,0h3v2h-3V0z M1040,0h3v2h-3V0z
	 M1035,0h3v2h-3V0z M1030,0h3v2h-3V0z M1025,0h3v2h-3V0z M1020,0h3v2h-3V0z M1015,0h3v2h-3V0z M1010,0h3v2h-3V0z M1005,0h3v2h-3V0z
	 M1000,0h3v2h-3V0z M995,0h3v2h-3V0z M990,0h3v2h-3V0z M985,0h3v2h-3V0z M980,0h3v2h-3V0z M975,0h3v2h-3V0z M970,0h3v2h-3V0z M965,0
	h3v2h-3V0z M960,0h3v2h-3V0z M955,0h3v2h-3V0z M950,0h3v2h-3V0z M945,0h3v2h-3V0z M940,0h3v2h-3V0z M935,0h3v2h-3V0z M930,0h3v2h-3
	V0z M920,0h3v2h-3V0z M915,0h3v2h-3V0z M910,0h3v2h-3V0z M905,0h3v2h-3V0z M900,0h3v2h-3V0z M895,0h3v2h-3V0z M890,0h3v2h-3V0z
	 M885,0h3v2h-3V0z M880,0h3v2h-3V0z M875,0h3v2h-3V0z M870,0h3v2h-3V0z M865,0h3v2h-3V0z M860,0h3v2h-3V0z M855,0h3v2h-3V0z M850,0
	h3v2h-3V0z M845,0h3v2h-3V0z M840,0h3v2h-3V0z M835,0h3v2h-3V0z M830,0h3v2h-3V0z M825,0h3v2h-3V0z M820,0h3v2h-3V0z M815,0h3v2h-3
	V0z M810,0h3v2h-3V0z M805,0h3v2h-3V0z M800,0h3v2h-3V0z M795,0h3v2h-3V0z M790,0h3v2h-3V0z M785,0h3v2h-3V0z M780,0h3v2h-3V0z
	 M775,0h3v2h-3V0z M770,0h3v2h-3V0z M765,0h3v2h-3V0z M760,0h3v2h-3V0z M755,0h3v2h-3V0z M750,0h3v2h-3V0z M745,0h3v2h-3V0z M740,0
	h3v2h-3V0z M735,0h3v2h-3V0z M730,0h3v2h-3V0z M725,0h3v2h-3V0z M720,0h3v2h-3V0z M715,0h3v2h-3V0z M710,0h3v2h-3V0z M705,0h3v2h-3
	V0z M700,0h3v2h-3V0z M695,0h3v2h-3V0z M690,0h3v2h-3V0z M685,0h3v2h-3V0z M680,0h3v2h-3V0z M675,0h3v2h-3V0z M670,0h3v2h-3V0z
	 M665,0h3v2h-3V0z M660,0h3v2h-3V0z M655,0h3v2h-3V0z M650,0h3v2h-3V0z M645,0h3v2h-3V0z M640,0h3v2h-3V0z M635,0h3v2h-3V0z M630,0
	h3v2h-3V0z M625,0h3v2h-3V0z M620,0h3v2h-3V0z M615,0h3v2h-3V0z M610,0h3v2h-3V0z"/>
</svg>
