<svg xmlns="http://www.w3.org/2000/svg" viewBox="0 0 800.2 154.49"><defs><style>.cls-1{fill:#fff;}</style></defs><title>Asset 1</title><g id="Layer_2" data-name="Layer 2"><g id="Слой_1" data-name="Слой 1"><rect width="154.49" height="154.49" rx="17.01" ry="17.01"/><polygon class="cls-1" points="96.33 115.95 57.63 115.95 57.63 110.73 93.72 110.73 93.72 79.86 60.24 79.86 57.63 77.25 57.63 41.15 60.24 38.54 98.94 38.54 98.94 43.76 62.85 43.76 62.85 74.64 96.33 74.64 98.94 77.25 98.94 113.34 96.33 115.95"/><path class="cls-1" d="M96.92,117.37H56.21v-8.05H92.3v-28H59.65l-3.44-3.44V40.56l3.44-3.44h40.71v8.05H64.26v28H96.92l3.44,3.44v37.27ZM59,114.53h36.7l1.78-1.78V77.83l-1.78-1.78H61.43V42.34H97.52V40H60.82L59,41.74V76.66l1.78,1.78H95.14v33.71H59Z"/><rect class="cls-1" x="64.67" y="32.89" width="16.12" height="8.5" transform="translate(109.87 -35.59) rotate(90)"/><rect class="cls-1" x="77.15" y="32.89" width="16.12" height="8.5" transform="translate(122.35 -48.07) rotate(90)"/><rect class="cls-1" x="48.15" y="61.39" width="16.12" height="8.5"/><rect class="cls-1" x="48.15" y="48.91" width="16.12" height="8.5"/><rect class="cls-1" x="92.3" y="97.39" width="16.12" height="8.5"/><rect class="cls-1" x="92.3" y="84.91" width="16.12" height="8.5"/><rect class="cls-1" x="64.56" y="113.22" width="16.34" height="8.5" transform="translate(190.2 44.74) rotate(90)"/><rect class="cls-1" x="77.04" y="113.22" width="16.34" height="8.5" transform="translate(202.69 32.26) rotate(90)"/><path d="M244,41.41a22.34,22.34,0,0,0-4.71-1.31,37.77,37.77,0,0,0-6.21-.44A28.3,28.3,0,0,0,223,41.54a22.43,22.43,0,0,0-8.78,6.13A31.46,31.46,0,0,0,208,58.8a53.27,53.27,0,0,0-2.32,16.88,53.94,53.94,0,0,0,2.07,15.76,32.48,32.48,0,0,0,5.77,11.25,23.44,23.44,0,0,0,8.91,6.75,28.94,28.94,0,0,0,11.6,2.25,31.12,31.12,0,0,0,6.08-.56,27.1,27.1,0,0,0,5.21-1.56V97.06h9.25v16.88l.13.25a32.66,32.66,0,0,1-9.5,4.81,44.21,44.21,0,0,1-14,1.94,38.72,38.72,0,0,1-14.57-2.69,30.43,30.43,0,0,1-11.57-8.19A38.07,38.07,0,0,1,197.54,96a68.15,68.15,0,0,1-2.69-20.32q0-12.25,3-20.82a38.78,38.78,0,0,1,8.13-14,30.82,30.82,0,0,1,11.94-7.94,42,42,0,0,1,14.57-2.5q4.25,0,7.38.31a42.51,42.51,0,0,1,5.5.88A20.61,20.61,0,0,1,249.56,33a34,34,0,0,1,3.56,2h.13V54.79H244Z"/><path d="M275.25,61.8a39.77,39.77,0,0,1,12.13-4.5,66.37,66.37,0,0,1,13.25-1.38,23.68,23.68,0,0,1,10.44,2,16.94,16.94,0,0,1,6.38,5.19,18.33,18.33,0,0,1,3.13,7.25,41.7,41.7,0,0,1,.81,8.19q0,4.75-.25,10.13t-.38,10.75a89.94,89.94,0,0,0,.75,11.88h8.38v8.13H313.38l-1.12-9.38h-.63a31.87,31.87,0,0,1-2.26,2.88,20.65,20.65,0,0,1-4,3.44,25.51,25.51,0,0,1-6,2.94,24.73,24.73,0,0,1-8.28,1.25q-9.28,0-14.68-4.75t-5.39-13a18.82,18.82,0,0,1,2.82-10.63,17.8,17.8,0,0,1,8.09-6.5,37.17,37.17,0,0,1,12.73-2.63,85.84,85.84,0,0,1,16.75,1,44.37,44.37,0,0,0,.19-9.57,13.16,13.16,0,0,0-2-6.06,8.42,8.42,0,0,0-4.39-3.19,22.33,22.33,0,0,0-7-.94,36.93,36.93,0,0,0-10.79,1.56q-5.15,1.57-9.16,3.19Zm18.51,50.39a18.39,18.39,0,0,0,6.5-1.12,19.8,19.8,0,0,0,5.25-2.88,19,19,0,0,0,3.75-3.81,18.44,18.44,0,0,0,2.25-3.94V91.68a70.74,70.74,0,0,0-12-1.13,33.62,33.62,0,0,0-9.5,1.19,13.26,13.26,0,0,0-6.25,3.69,9.35,9.35,0,0,0-2.25,6.5,10.29,10.29,0,0,0,2.81,7.19Q287.13,112.19,293.76,112.19Z"/><path d="M381.92,102.56a7.12,7.12,0,0,0-3.12-6.19,25.58,25.58,0,0,0-7.73-3.5q-4.61-1.31-10-2.44a57.78,57.78,0,0,1-10-3,22.48,22.48,0,0,1-7.73-5.06q-3.12-3.19-3.12-8.94a15.3,15.3,0,0,1,2.06-8.13,17.35,17.35,0,0,1,5.44-5.56,24.9,24.9,0,0,1,7.88-3.25,40.74,40.74,0,0,1,9.38-1.06A46.21,46.21,0,0,1,380,57.61,49.48,49.48,0,0,1,390,62.17l-4,7.88q-4.11-2.25-8.91-4.31a30.56,30.56,0,0,0-12-2.06,26.3,26.3,0,0,0-5.42.56,19.11,19.11,0,0,0-4.86,1.69,9.7,9.7,0,0,0-3.49,2.94A7.38,7.38,0,0,0,350,73.3a5.47,5.47,0,0,0,3.12,5,32.19,32.19,0,0,0,7.73,2.94q4.61,1.19,10,2.25a48.84,48.84,0,0,1,10,3.06,22.59,22.59,0,0,1,7.73,5.38q3.12,3.38,3.12,9.13A17.7,17.7,0,0,1,385,115.32q-6.82,5.63-20.44,5.63a44,44,0,0,1-8.13-.75,49.14,49.14,0,0,1-7.5-2,44.78,44.78,0,0,1-6.38-2.81,26.69,26.69,0,0,1-4.75-3.19l5-8.13a22.52,22.52,0,0,0,4,3.06,37.55,37.55,0,0,0,11.91,4.81,32.26,32.26,0,0,0,6.92.75,33.35,33.35,0,0,0,6.3-.56,18.4,18.4,0,0,0,5.18-1.75,9.62,9.62,0,0,0,3.55-3.13A8.19,8.19,0,0,0,381.92,102.56Z"/><path d="M397.8,31.91h19.51V64.67h.63a28,28,0,0,1,9-6.81,29.61,29.61,0,0,1,12.75-2.44,38.79,38.79,0,0,1,10.44,1.25A15,15,0,0,1,457.38,61a19.9,19.9,0,0,1,4.19,8.57,57.77,57.77,0,0,1,1.38,13.82v36h-9.88V85.31a61.93,61.93,0,0,0-.62-9.38A16.41,16.41,0,0,0,450,69.24a11.27,11.27,0,0,0-4.92-4.06,19.88,19.88,0,0,0-8-1.38A19.08,19.08,0,0,0,430.52,65a22.13,22.13,0,0,0-5.92,3.25,20.42,20.42,0,0,0-4.61,5,18.77,18.77,0,0,0-2.68,6.44v39.77h-9.63V40.29H397.8Z"/><path d="M537.48,51.92a21.7,21.7,0,0,1-1,6.38,21.11,21.11,0,0,1-3,6.06,20,20,0,0,1-5.11,4.94A23.77,23.77,0,0,1,521,72.55v.5a30.35,30.35,0,0,1,7.17,2.13,19.54,19.54,0,0,1,6.05,4.13,20.36,20.36,0,0,1,4.24,6.38,22.26,22.26,0,0,1,1.62,8.88,23.27,23.27,0,0,1-2.81,11.69,24,24,0,0,1-7.36,8.07,32.44,32.44,0,0,1-10.42,4.63,48.14,48.14,0,0,1-12,1.5h-5q-2.87,0-6-.19t-6.24-.5a35.51,35.51,0,0,1-5.49-.94V32.66q4.61-.75,10.73-1.25t13.35-.5a62.43,62.43,0,0,1,9.92.81A27.49,27.49,0,0,1,528,34.85a19.35,19.35,0,0,1,6.8,6.44A19.18,19.18,0,0,1,537.48,51.92ZM501.71,70.43q2.13,0,5.13-.12t5-.37a34.07,34.07,0,0,0,5.63-2.44A21.51,21.51,0,0,0,522.16,64a15.48,15.48,0,0,0,3.25-4.5A12.66,12.66,0,0,0,526.6,54,13.77,13.77,0,0,0,525,47.17a12.09,12.09,0,0,0-4.19-4.38,17.32,17.32,0,0,0-6-2.25,37.77,37.77,0,0,0-6.88-.62q-4.13,0-7.57.19a36.06,36.06,0,0,0-5.19.56V70.43Zm6.88,41a29.9,29.9,0,0,0,7.75-1,20.91,20.91,0,0,0,6.63-3,15,15,0,0,0,4.56-5,14.3,14.3,0,0,0,1.69-7.13,14.76,14.76,0,0,0-2.06-8.25,14.44,14.44,0,0,0-5.38-4.88,23.32,23.32,0,0,0-7.44-2.38,55.06,55.06,0,0,0-8.25-.63H495.21v31.39a13.12,13.12,0,0,0,2.5.38l3.5.25q1.88.13,3.88.19T508.59,111.44Z"/><path d="M580.87,109.82h4.75l15.51-52.9h10.13l-17.38,56.15q-1.38,4.38-2.81,9.94A46.51,46.51,0,0,1,587,133.45a25.07,25.07,0,0,1-7.13,8.25q-4.5,3.38-11.75,3.38a17,17,0,0,1-3.44-.38,34.38,34.38,0,0,1-3.56-.94,23,23,0,0,1-3.25-1.31,8.75,8.75,0,0,1-2.25-1.5l3.5-9a10,10,0,0,0,2.06,1.25,18.1,18.1,0,0,0,2.88,1.06q1.56.44,3.06.75a12.77,12.77,0,0,0,2.5.31q9.38,0,12.75-15.88H574L547.73,56.92H559Z"/><path d="M667.64,112a24.08,24.08,0,0,1-5.92.7q-8.23,0-12.65-4.38t-4.42-13.5V65.3h23V56.92h-23V41.79l-9.88,2.75V56.92H619.88V65.3h14.88v31a28.39,28.39,0,0,0,2,11.19,21.24,21.24,0,0,0,5.38,7.69,21.66,21.66,0,0,0,7.82,4.44,30.47,30.47,0,0,0,9.44,1.44,37.23,37.23,0,0,0,8.24-.92Z"/><path d="M733.68,111.57a31.4,31.4,0,0,1-5.31,3.75,39.06,39.06,0,0,1-6.69,3,49.1,49.1,0,0,1-7.57,1.94,46.23,46.23,0,0,1-7.94.69,35.32,35.32,0,0,1-13.25-2.31,25.5,25.5,0,0,1-9.63-6.63,28.85,28.85,0,0,1-5.88-10.32,42.54,42.54,0,0,1-2-13.5,41.49,41.49,0,0,1,2.19-14,27.16,27.16,0,0,1,6.31-10.25,27.51,27.51,0,0,1,10-6.31A37.42,37.42,0,0,1,707,55.42a39.91,39.91,0,0,1,10.38,1.38A20.52,20.52,0,0,1,726.49,62a24.76,24.76,0,0,1,6.06,10.5q2.13,6.69,1.5,17.32H685.79q0,11.25,6,16.82T708,112.19a27.79,27.79,0,0,0,6.67-.81,55.6,55.6,0,0,0,6.3-1.94,33.09,33.09,0,0,0,5.3-2.5,23,23,0,0,0,3.55-2.5ZM707.35,63.67a33.59,33.59,0,0,0-7.79.88,17.74,17.74,0,0,0-6.48,2.94,16.16,16.16,0,0,0-4.61,5.38,21.61,21.61,0,0,0-2.31,8.19h38.76q-.62-8.25-5.3-12.82T707.35,63.67Z"/><path d="M790.32,102.56a7.12,7.12,0,0,0-3.12-6.19,25.58,25.58,0,0,0-7.73-3.5q-4.61-1.31-10-2.44a57.78,57.78,0,0,1-10-3,22.48,22.48,0,0,1-7.73-5.06q-3.12-3.19-3.12-8.94a15.29,15.29,0,0,1,2.06-8.13,17.33,17.33,0,0,1,5.44-5.56,24.91,24.91,0,0,1,7.88-3.25,40.74,40.74,0,0,1,9.38-1.06,46.21,46.21,0,0,1,15.07,2.19,49.48,49.48,0,0,1,10.07,4.56l-4,7.88q-4.11-2.25-8.91-4.31a30.57,30.57,0,0,0-12-2.06,26.31,26.31,0,0,0-5.42.56,19.1,19.1,0,0,0-4.86,1.69,9.7,9.7,0,0,0-3.49,2.94,7.38,7.38,0,0,0-1.31,4.44,5.47,5.47,0,0,0,3.12,5,32.2,32.2,0,0,0,7.73,2.94q4.61,1.19,10,2.25a48.87,48.87,0,0,1,10,3.06,22.6,22.6,0,0,1,7.73,5.38q3.11,3.38,3.12,9.13a17.7,17.7,0,0,1-6.82,14.26q-6.82,5.63-20.45,5.63a44,44,0,0,1-8.13-.75,49.16,49.16,0,0,1-7.5-2,44.79,44.79,0,0,1-6.38-2.81,26.71,26.71,0,0,1-4.75-3.19l5-8.13a22.52,22.52,0,0,0,4,3.06,37.57,37.57,0,0,0,11.91,4.81,32.26,32.26,0,0,0,6.92.75,33.35,33.35,0,0,0,6.29-.56,18.39,18.39,0,0,0,5.18-1.75,9.61,9.61,0,0,0,3.55-3.13A8.18,8.18,0,0,0,790.32,102.56Z"/></g></g></svg>