<?xml version="1.0" encoding="UTF-8"?>
<svg width="25px" height="24px" viewBox="0 0 25 24" version="1.1" xmlns="http://www.w3.org/2000/svg" xmlns:xlink="http://www.w3.org/1999/xlink">
    <!-- Generator: Sketch 47.1 (45422) - http://www.bohemiancoding.com/sketch -->
    <title>Polygon</title>
    <desc>Created with Sketch.</desc>
    <defs></defs>
    <g id="Page-1" stroke="none" stroke-width="1" fill="none" fill-rule="evenodd" opacity="0.791836504">
        <g id="cashbytes_1200px" transform="translate(-688.000000, -2719.000000)" fill="#FC2237">
            <g id="roadmap" transform="translate(100.000000, 2626.000000)">
                <path d="M601.459221,92.4799113 L609.386996,96.2977263 L609.386996,96.2977263 C609.93537,96.5618093 610.333647,97.061233 610.469084,97.6546221 L612.427083,106.233175 L612.427083,106.233175 C612.56252,106.826564 612.420377,107.449335 612.04089,107.925196 L606.5547,114.804661 L606.5547,114.804661 C606.175213,115.280522 605.599686,115.557681 604.991037,115.557681 L596.191871,115.557681 L596.191871,115.557681 C595.583222,115.557681 595.007695,115.280522 594.628208,114.804661 L589.142018,107.925196 L589.142018,107.925196 C588.762531,107.449335 588.620388,106.826564 588.755825,106.233175 L590.713824,97.6546221 L590.713824,97.6546221 C590.849261,97.061233 591.247538,96.5618093 591.795912,96.2977263 L599.723686,92.4799113 L599.723686,92.4799113 C600.27206,92.2158283 600.910847,92.2158283 601.459221,92.4799113 Z" id="Polygon" transform="translate(600.591454, 103.919765) rotate(26.000000) translate(-600.591454, -103.919765) "></path>
            </g>
        </g>
    </g>
</svg>