<?xml version="1.0" encoding="UTF-8"?>
<svg width="25px" height="24px" viewBox="0 0 25 24" version="1.1" xmlns="http://www.w3.org/2000/svg" xmlns:xlink="http://www.w3.org/1999/xlink">
    <!-- Generator: Sketch 47.1 (45422) - http://www.bohemiancoding.com/sketch -->
    <title>Polygon Copy 3</title>
    <desc>Created with Sketch.</desc>
    <defs></defs>
    <g id="Page-1" stroke="none" stroke-width="1" fill="none" fill-rule="evenodd" opacity="0.791836504">
        <g id="cashbytes_1200px" transform="translate(-688.000000, -3108.000000)" stroke="#FC2237">
            <g id="roadmap" transform="translate(100.000000, 2626.000000)">
                <path d="M601.242279,481.930396 C600.830999,481.732333 600.351909,481.732333 599.940628,481.930396 L592.012854,485.748211 C591.601573,485.946273 591.302865,486.320841 591.201287,486.765883 L589.243289,495.344435 C589.141711,495.789477 589.248319,496.256555 589.532934,496.613451 L595.019124,503.492916 C595.303739,503.849812 595.735384,504.057681 596.191871,504.057681 L604.991037,504.057681 C605.447524,504.057681 605.879169,503.849812 606.163784,503.492916 L611.649974,496.613451 C611.934589,496.256555 612.041197,495.789477 611.939619,495.344435 L609.98162,486.765883 C609.880042,486.320841 609.581335,485.946273 609.170054,485.748211 L601.242279,481.930396 Z" id="Polygon-Copy-3" transform="translate(600.591454, 492.919765) rotate(26.000000) translate(-600.591454, -492.919765) "></path>
            </g>
        </g>
    </g>
</svg>